<svg width="16" height="16" viewBox="0 0 16 16" fill="none" xmlns="http://www.w3.org/2000/svg">
<path fill-rule="evenodd" clip-rule="evenodd" d="M5 3C4.44772 3 4 3.44772 4 4C4 4.55228 4.44772 5 5 5L9.58579 5L2.29289 12.2929C1.90237 12.6834 1.90237 13.3166 2.29289 13.7071C2.68342 14.0976 3.31658 14.0976 3.70711 13.7071L11 6.41421L11 11C11 11.5523 11.4477 12 12 12C12.5523 12 13 11.5523 13 11L13 4C13 3.73478 12.8946 3.48043 12.7071 3.29289C12.5196 3.10536 12.2652 3 12 3L5 3Z" fill="#8D7458"/>
</svg>
