<svg width="16" height="16" viewBox="0 0 16 16" fill="none" xmlns="http://www.w3.org/2000/svg">
<path fill-rule="evenodd" clip-rule="evenodd" d="M10.7071 4.29289C10.3166 3.90237 9.68342 3.90237 9.29289 4.29289C8.90237 4.68342 8.90237 5.31658 9.29289 5.70711L11.5858 7.99999L3.99998 8.00001C3.44769 8.00001 2.99998 7.55229 2.99998 7.00001L2.99998 2.00002C2.99998 1.44774 2.55226 1.00002 1.99998 1.00002C1.44769 1.00002 0.999978 1.44774 0.999978 2.00002L0.999977 7.00001C0.999978 8.65686 2.34312 10 3.99998 10L11.5858 9.99999L9.29289 12.2929C8.90237 12.6834 8.90237 13.3166 9.29289 13.7071C9.68342 14.0976 10.3166 14.0976 10.7071 13.7071L14.7071 9.70711C15.0976 9.31658 15.0976 8.68342 14.7071 8.29289L10.7071 4.29289Z" fill="#A0968D"/>
</svg>
