<svg width="44" height="44" viewBox="0 0 44 44" fill="none" xmlns="http://www.w3.org/2000/svg">
<g clip-path="url(#clip0_350_260)">
<path d="M22.6897 1.39992L22.8797 0.169922L27.7797 0.929922L27.5897 2.15992L25.8997 1.89992L25.2197 6.30992L23.6897 6.06992L24.3697 1.65992L22.6797 1.39992H22.6897Z" fill="#8D7458"/>
<path d="M28.1201 6.98986L31.0901 2.10986L32.4101 2.91986L31.2801 4.76986L33.0301 5.83986L34.1601 3.98986L35.4801 4.79986L32.5101 9.67986L31.1901 8.86986L32.3801 6.90986L30.6301 5.83986L29.4401 7.79986L28.1201 6.98986Z" fill="#8D7458"/>
<path d="M33.5198 10.7098L38.0698 7.25977L40.5598 10.5398L39.5598 11.2998L38.0098 9.24977L37.2398 9.82977L38.6598 11.6998L37.6898 12.4398L36.2698 10.5698L35.4498 11.1898L36.9898 13.2198L35.9898 13.9798L33.5098 10.7098H33.5198Z" fill="#8D7458"/>
<path d="M37.3596 17.7802C37.2196 17.2802 37.2096 16.8002 37.3096 16.3302C37.4096 15.8602 37.6496 15.4602 37.9996 15.1002C38.3596 14.7502 38.8396 14.4902 39.4496 14.3202C40.0596 14.1502 40.6096 14.1302 41.0996 14.2502C41.5896 14.3702 41.9896 14.6002 42.3196 14.9502C42.6496 15.3002 42.8796 15.7202 43.0196 16.2202C43.1596 16.7202 43.1696 17.2002 43.0696 17.6702C42.9696 18.1402 42.7396 18.5402 42.3796 18.9002C42.0196 19.2502 41.5396 19.5102 40.9296 19.6802C40.3196 19.8502 39.7696 19.8702 39.2896 19.7502C38.7996 19.6302 38.3996 19.3902 38.0696 19.0502C37.7396 18.7102 37.5096 18.2802 37.3696 17.7802H37.3596ZM38.6596 17.4202C38.7296 17.6702 38.8396 17.8602 39.0096 18.0002C39.1796 18.1402 39.3796 18.2202 39.6296 18.2402C39.8796 18.2602 40.1696 18.2402 40.4996 18.1402C40.8296 18.0502 41.0996 17.9302 41.2996 17.7802C41.5096 17.6302 41.6396 17.4602 41.7096 17.2602C41.7796 17.0602 41.7796 16.8302 41.7096 16.5902C41.6396 16.3402 41.5296 16.1502 41.3596 16.0202C41.1996 15.8802 40.9896 15.8002 40.7396 15.7802C40.4896 15.7602 40.1996 15.7802 39.8696 15.8802C39.5396 15.9702 39.2796 16.0902 39.0696 16.2402C38.8696 16.3902 38.7296 16.5702 38.6596 16.7702C38.5896 16.9702 38.5896 17.1902 38.6596 17.4402V17.4202Z" fill="#8D7458"/>
<path d="M39.5902 23.1301C39.6002 22.9001 39.6702 22.7001 39.7902 22.5201C39.9102 22.3401 40.0702 22.2001 40.2602 22.1001C40.4502 22.0001 40.6602 21.9601 40.8902 21.9801C41.1202 21.9901 41.3202 22.0601 41.5002 22.1801C41.6802 22.3001 41.8202 22.4601 41.9102 22.6501C42.0102 22.8401 42.0502 23.0501 42.0302 23.2801C42.0202 23.5101 41.9502 23.7101 41.8302 23.8901C41.7102 24.0701 41.5502 24.2101 41.3602 24.3001C41.1702 24.4001 40.9602 24.4401 40.7302 24.4201C40.5102 24.4101 40.3002 24.3401 40.1202 24.2201C39.9402 24.1001 39.8002 23.9401 39.7002 23.7501C39.6002 23.5601 39.5602 23.3501 39.5802 23.1201L39.5902 23.1301Z" fill="#8D7458"/>
<path d="M36.6002 28.6002L39.5502 28.2502L38.9502 29.7902L35.9902 30.1702L36.6002 28.6002ZM37.7202 25.7202L43.0402 27.8002L42.1402 30.0902C41.9902 30.4902 41.7802 30.8002 41.5202 31.0402C41.2602 31.2802 40.9602 31.4302 40.6302 31.4902C40.3002 31.5502 39.9402 31.5102 39.5602 31.3602C39.1802 31.2102 38.8902 31.0002 38.6902 30.7302C38.4902 30.4602 38.3902 30.1402 38.3702 29.7902C38.3602 29.4302 38.4302 29.0502 38.5902 28.6502L39.1302 27.2802L40.2502 27.7202L39.8302 28.8002C39.7602 28.9702 39.7302 29.1302 39.7202 29.2602C39.7202 29.4002 39.7502 29.5202 39.8102 29.6202C39.8802 29.7202 39.9902 29.8002 40.1402 29.8602C40.2902 29.9202 40.4302 29.9402 40.5502 29.9102C40.6702 29.8802 40.7802 29.8202 40.8702 29.7102C40.9602 29.6102 41.0402 29.4702 41.1102 29.3002L41.3102 28.7902L37.1502 27.1602L37.7102 25.7202H37.7202Z" fill="#8D7458"/>
<path d="M38.7202 35.8699L34.2002 32.3799L35.1502 31.1499L39.6702 34.6399L38.7202 35.8699Z" fill="#8D7458"/>
<path d="M31.0896 35.08C31.5196 34.78 31.9596 34.6 32.4296 34.55C32.8996 34.49 33.3596 34.58 33.8096 34.79C34.2596 35.01 34.6596 35.37 35.0296 35.89C35.3996 36.41 35.6096 36.92 35.6596 37.42C35.7096 37.92 35.6296 38.38 35.4196 38.8C35.2096 39.22 34.8896 39.58 34.4796 39.88C34.1896 40.08 33.8896 40.23 33.5896 40.33C33.2896 40.43 32.9896 40.46 32.6996 40.44C32.4096 40.42 32.1296 40.34 31.8596 40.2C31.5896 40.06 31.3396 39.86 31.1096 39.6L32.3996 38.7C32.4796 38.79 32.5696 38.86 32.6696 38.92C32.7696 38.97 32.8696 39 32.9796 39.02C33.0896 39.04 33.1996 39.02 33.3096 38.99C33.4196 38.96 33.5396 38.9 33.6596 38.82C33.8696 38.67 34.0096 38.49 34.0896 38.29C34.1696 38.08 34.1696 37.86 34.1096 37.61C34.0496 37.36 33.9196 37.11 33.7296 36.83C33.5296 36.55 33.3196 36.33 33.1096 36.2C32.8996 36.07 32.6796 36 32.4696 36C32.2596 36 32.0496 36.08 31.8396 36.23C31.7196 36.31 31.6296 36.4 31.5596 36.5C31.4896 36.6 31.4396 36.7 31.4096 36.8C31.3796 36.91 31.3796 37.02 31.3896 37.13C31.3996 37.24 31.4396 37.35 31.4996 37.46L30.2096 38.37C30.0896 38.16 29.9996 37.92 29.9496 37.65C29.8996 37.38 29.8996 37.09 29.9496 36.79C29.9996 36.49 30.1196 36.2 30.2996 35.91C30.4796 35.62 30.7396 35.36 31.0896 35.11V35.08Z" fill="#8D7458"/>
<path d="M27.8195 37.1299L28.9895 42.7199L27.4695 43.0399L27.0195 40.9199L25.0095 41.3399L25.4595 43.4599L23.9395 43.7799L22.7695 38.1899L24.2895 37.8699L24.7595 40.1099L26.7695 39.6899L26.2995 37.4499L27.8195 37.1299Z" fill="#8D7458"/>
<path d="M21.5598 38.2598L18.5698 43.4698L16.4998 43.0298L15.7998 37.0498L17.5198 37.4098L17.7098 39.7098C17.7498 40.2098 17.7798 40.7198 17.7898 41.2598C17.8098 41.7898 17.8198 42.3198 17.8198 42.8398L17.4698 42.7698C17.6798 42.2898 17.8898 41.8098 18.1098 41.3298C18.3298 40.8498 18.5498 40.3798 18.7798 39.9398L19.8598 37.8998L21.5598 38.2598ZM19.9898 39.0498L19.7498 40.1798L16.6698 39.5298L16.9098 38.3998L19.9898 39.0498Z" fill="#8D7458"/>
<path d="M14.7498 36.4402L11.4998 41.1302L9.47981 39.7302C9.12981 39.4902 8.86981 39.2102 8.69981 38.9002C8.52981 38.5902 8.44981 38.2702 8.46981 37.9302C8.48981 37.5902 8.60981 37.2602 8.83981 36.9202C9.06981 36.5802 9.33981 36.3502 9.64981 36.2202C9.95981 36.0902 10.2898 36.0602 10.6398 36.1302C10.9898 36.2002 11.3398 36.3602 11.6998 36.6002L12.9098 37.4402L12.2198 38.4302L11.2698 37.7702C11.1198 37.6702 10.9798 37.6002 10.8398 37.5602C10.7098 37.5202 10.5798 37.5302 10.4698 37.5602C10.3598 37.6002 10.2498 37.6902 10.1598 37.8302C10.0698 37.9602 10.0198 38.0902 10.0198 38.2202C10.0198 38.3402 10.0598 38.4602 10.1398 38.5802C10.2198 38.7002 10.3298 38.8002 10.4898 38.9102L10.9398 39.2202L13.4898 35.5502L14.7598 36.4302L14.7498 36.4402ZM12.2098 34.6802L11.8598 37.6302L10.5098 36.6902L10.8298 33.7202L12.2198 34.6802H12.2098Z" fill="#8D7458"/>
<path d="M8.79041 31.0301L9.65041 32.3301L8.55041 33.0601L7.72041 31.8101C7.56041 31.5701 7.39041 31.4001 7.21041 31.2801C7.03041 31.1601 6.81041 31.1201 6.57041 31.1601C6.33041 31.2001 6.04041 31.3201 5.71041 31.5401C5.38041 31.7601 5.15041 31.9801 5.02041 32.1901C4.89041 32.4001 4.85041 32.6201 4.89041 32.8401C4.93041 33.0601 5.03041 33.3001 5.19041 33.5501L6.01041 34.7901L4.91041 35.5201L4.05041 34.2201C3.73041 33.7301 3.54041 33.2401 3.50041 32.7601C3.46041 32.2801 3.55041 31.8201 3.78041 31.3901C4.01041 30.9601 4.37041 30.5801 4.87041 30.2501C5.36041 29.9201 5.85041 29.7401 6.34041 29.7001C6.82041 29.6601 7.28041 29.7501 7.70041 29.9801C8.12041 30.2101 8.50041 30.5601 8.81041 31.0501L8.79041 31.0301ZM4.38041 34.7201L9.15041 31.5701L10.0004 32.8601L5.23041 36.0101L4.38041 34.7201Z" fill="#8D7458"/>
<path d="M4.97043 26.5598C5.03043 26.7798 5.03043 26.9898 4.97043 27.1998C4.91043 27.4098 4.81043 27.5898 4.66043 27.7398C4.51043 27.8898 4.32043 27.9998 4.11043 28.0598C3.89043 28.1198 3.68043 28.1198 3.47043 28.0598C3.26043 27.9998 3.08043 27.8998 2.93043 27.7498C2.78043 27.5998 2.67043 27.4098 2.61043 27.1998C2.55043 26.9798 2.55043 26.7698 2.61043 26.5598C2.67043 26.3498 2.77043 26.1698 2.92043 26.0198C3.07043 25.8698 3.26043 25.7598 3.48043 25.6998C3.70043 25.6398 3.91043 25.6398 4.12043 25.6998C4.33043 25.7598 4.51043 25.8598 4.66043 26.0098C4.81043 26.1598 4.92043 26.3498 4.98043 26.5698L4.97043 26.5598Z" fill="#8D7458"/>
<path d="M5.93016 23.5201L4.82016 23.4801L3.14016 21.2801C3.03016 21.1301 2.92016 21.0101 2.82016 20.9001C2.72016 20.7901 2.62016 20.7101 2.51016 20.6501C2.40016 20.5901 2.28016 20.5601 2.15016 20.5501C2.00016 20.5501 1.88016 20.5701 1.77016 20.6301C1.66016 20.6901 1.58016 20.7701 1.52016 20.8801C1.46016 20.9901 1.43016 21.1101 1.42016 21.2501C1.42016 21.3901 1.44016 21.5201 1.49016 21.6301C1.54016 21.7401 1.62016 21.8301 1.73016 21.8901C1.84016 21.9501 1.97016 21.9901 2.13016 22.0001L2.07016 23.4701C1.67016 23.4501 1.33016 23.3501 1.05016 23.1601C0.770158 22.9701 0.560158 22.7101 0.410158 22.3701C0.270158 22.0301 0.200158 21.6501 0.220158 21.2001C0.240158 20.7401 0.330158 20.3501 0.490158 20.0201C0.650158 19.6901 0.860158 19.4401 1.14016 19.2701C1.41016 19.1001 1.72016 19.0201 2.08016 19.0301C2.30016 19.0301 2.52016 19.0901 2.73016 19.1901C2.94016 19.2901 3.17016 19.4601 3.43016 19.7101C3.68016 19.9601 3.98016 20.3001 4.32016 20.7501L4.74016 21.3001H4.78016L4.87016 19.0701L6.10016 19.1201L5.93016 23.5001V23.5201Z" fill="#8D7458"/>
<path d="M7.42017 15.5802C7.21017 16.0602 6.92017 16.4302 6.55017 16.6802C6.18017 16.9302 5.76017 17.0602 5.28017 17.0702C4.80017 17.0702 4.28017 16.9602 3.72017 16.7102C3.16017 16.4602 2.72017 16.1602 2.39017 15.8002C2.07017 15.4402 1.88017 15.0402 1.82017 14.6002C1.76017 14.1602 1.84017 13.7002 2.05017 13.2202C2.26017 12.7402 2.55017 12.3702 2.92017 12.1202C3.29017 11.8702 3.71017 11.7402 4.19017 11.7402C4.67017 11.7402 5.19017 11.8602 5.76017 12.1002C6.33017 12.3402 6.76017 12.6502 7.08017 13.0102C7.40017 13.3702 7.59017 13.7702 7.65017 14.2002C7.71017 14.6402 7.63017 15.1002 7.42017 15.5902V15.5802ZM6.27017 15.0702C6.35017 14.8902 6.36017 14.7102 6.30017 14.5402C6.24017 14.3602 6.11017 14.1902 5.91017 14.0302C5.71017 13.8702 5.45017 13.7102 5.12017 13.5602C4.79017 13.4102 4.49017 13.3202 4.24017 13.2902C3.99017 13.2602 3.77017 13.2702 3.59017 13.3402C3.41017 13.4102 3.29017 13.5402 3.21017 13.7202C3.13017 13.9002 3.12017 14.0802 3.19017 14.2502C3.25017 14.4302 3.39017 14.6002 3.59017 14.7602C3.79017 14.9302 4.06017 15.0802 4.39017 15.2302C4.72017 15.3802 5.01017 15.4702 5.27017 15.5002C5.53017 15.5402 5.74017 15.5202 5.91017 15.4502C6.08017 15.3802 6.21017 15.2502 6.29017 15.0702H6.27017Z" fill="#8D7458"/>
<path d="M9.19008 12.1798L8.41008 11.3898L8.68008 8.63978C8.70008 8.45978 8.71008 8.28978 8.70008 8.14978C8.69008 8.00978 8.68008 7.86978 8.64008 7.75978C8.60008 7.64978 8.53008 7.53978 8.44008 7.43978C8.34008 7.33978 8.23008 7.26978 8.11008 7.23978C7.99008 7.20978 7.88008 7.20978 7.76008 7.24978C7.64008 7.28978 7.53008 7.35978 7.43008 7.45978C7.33008 7.55978 7.26008 7.66978 7.22008 7.78978C7.18008 7.90978 7.18008 8.02978 7.22008 8.14978C7.25008 8.26978 7.33008 8.38978 7.44008 8.49978L6.40008 9.53978C6.12008 9.25978 5.94008 8.94978 5.86008 8.61978C5.78008 8.28978 5.81008 7.94978 5.93008 7.60978C6.05008 7.26978 6.27008 6.93978 6.58008 6.62978C6.90008 6.30978 7.24008 6.07978 7.58008 5.94978C7.92008 5.81978 8.25008 5.77978 8.56008 5.83978C8.88008 5.89978 9.16008 6.04978 9.41008 6.30978C9.56008 6.46978 9.69008 6.64978 9.77008 6.86978C9.86008 7.08978 9.91008 7.36978 9.93008 7.71978C9.95008 8.06978 9.93008 8.52978 9.87008 9.08978L9.80008 9.77978L9.83008 9.80978L11.4101 8.23978L12.2801 9.11978L9.17008 12.2098L9.19008 12.1798Z" fill="#8D7458"/>
<path d="M15.4301 7.48992C15.0301 7.66992 14.6401 7.75992 14.2701 7.75992C13.9001 7.75992 13.5601 7.66992 13.2801 7.50992C13.0001 7.34992 12.7701 7.09992 12.6201 6.76992L14.0001 6.14992C14.0501 6.26992 14.1301 6.35992 14.2301 6.41992C14.3301 6.47992 14.4501 6.50992 14.5701 6.50992C14.7001 6.50992 14.8201 6.47992 14.9501 6.42992C15.0901 6.35992 15.2101 6.27992 15.2901 6.16992C15.3701 6.05992 15.4201 5.92992 15.4301 5.78992C15.4401 5.64992 15.4101 5.49992 15.3401 5.34992C15.2701 5.19992 15.1801 5.07992 15.0701 4.98992C14.9601 4.89992 14.8301 4.85992 14.7001 4.83992C14.5601 4.82992 14.4201 4.84992 14.2801 4.91992C14.1301 4.98992 14.0101 5.08992 13.9101 5.21992C13.8201 5.34992 13.7701 5.48992 13.7701 5.63992L12.4201 5.95992L11.3301 2.99992L14.8301 1.41992L15.3401 2.54992L13.0001 3.60992L13.4201 4.79992H13.4501C13.4501 4.58992 13.5401 4.39992 13.7001 4.20992C13.8601 4.01992 14.0601 3.85992 14.3301 3.73992C14.5601 3.63992 14.7901 3.57992 15.0301 3.56992C15.2601 3.56992 15.4901 3.59992 15.7001 3.68992C15.9101 3.77992 16.1101 3.89992 16.2801 4.06992C16.4501 4.23992 16.6001 4.44992 16.7101 4.68992C16.8701 5.04992 16.9301 5.40992 16.8901 5.76992C16.8401 6.12992 16.7001 6.45992 16.4601 6.75992C16.2201 7.05992 15.8901 7.29992 15.4701 7.49992L15.4301 7.48992Z" fill="#8D7458"/>
<path d="M19.8898 4.49984C19.6698 4.52984 19.4598 4.49984 19.2598 4.40984C19.0598 4.31984 18.8998 4.18984 18.7698 4.01984C18.6398 3.84984 18.5598 3.64984 18.5298 3.42984C18.4998 3.19984 18.5298 2.98984 18.6198 2.79984C18.7098 2.59984 18.8398 2.43984 19.0098 2.30984C19.1798 2.17984 19.3798 2.09984 19.5998 2.06984C19.8298 2.03984 20.0398 2.06984 20.2298 2.15984C20.4298 2.24984 20.5898 2.37984 20.7198 2.54984C20.8498 2.71984 20.9298 2.91984 20.9598 3.13984C20.9898 3.35984 20.9598 3.56984 20.8698 3.76984C20.7798 3.96984 20.6498 4.12984 20.4798 4.25984C20.3098 4.38984 20.1098 4.46984 19.8798 4.49984H19.8898Z" fill="#8D7458"/>
</g>
<defs>
<clipPath id="clip0_350_260">
<rect width="44" height="44" fill="white"/>
</clipPath>
</defs>
</svg>
