<svg width="44" height="44" viewBox="0 0 44 44" fill="none" xmlns="http://www.w3.org/2000/svg">
<path fill-rule="evenodd" clip-rule="evenodd" d="M11 22C11 15.9249 15.9249 11 22 11C28.0751 11 33 15.9249 33 22C33 28.0751 28.0751 33 22 33C15.9249 33 11 28.0751 11 22ZM19 22C19 20.3423 20.3423 19 22 19C22.9963 19 23.882 19.4857 24.4323 20.2396C24.7579 20.6857 25.3835 20.7833 25.8296 20.4577C26.2757 20.1321 26.3733 19.5065 26.0477 19.0604C25.138 17.8143 23.6637 17 22 17C19.2377 17 17 19.2377 17 22C17 24.7623 19.2377 27 22 27C23.6637 27 25.138 26.1857 26.0477 24.9396C26.3733 24.4935 26.2757 23.8679 25.8296 23.5423C25.3835 23.2167 24.7579 23.3143 24.4323 23.7604C23.882 24.5143 22.9963 25 22 25C20.3423 25 19 23.6577 19 22Z" fill="#8D7458"/>
</svg>
