<svg width="20" height="16" viewBox="0 0 20 16" fill="none" xmlns="http://www.w3.org/2000/svg">
<g clip-path="url(#clip0_350_511)">
<mask id="mask0_350_511" style="mask-type:luminance" maskUnits="userSpaceOnUse" x="0" y="0" width="20" height="16">
<path d="M16 0H4C1.79086 0 0 1.79086 0 4V12C0 14.2091 1.79086 16 4 16H16C18.2091 16 20 14.2091 20 12V4C20 1.79086 18.2091 0 16 0Z" fill="white"/>
</mask>
<g mask="url(#mask0_350_511)">
<path d="M20 0H0V16H20V0Z" fill="#6070FF"/>
<path d="M20 0L0 16" stroke="white" stroke-width="3" stroke-linecap="round" stroke-linejoin="round"/>
<path d="M-0.316406 0.411621L20.3148 15.5891" stroke="white" stroke-width="3" stroke-linecap="round" stroke-linejoin="round"/>
<path d="M20 0L0 16" stroke="#FF5166" stroke-linecap="round" stroke-linejoin="round"/>
<path d="M-0.316406 0.411621L20.3148 15.5891" stroke="#FF5166" stroke-linecap="round" stroke-linejoin="round"/>
<path d="M20 6H0V10H20V6Z" fill="white"/>
<path d="M12 0H8V16H12V0Z" fill="white"/>
<path d="M11 0H9V16H11V0Z" fill="#FF5166"/>
<path d="M20 7H0V9H20V7Z" fill="#FF5166"/>
<path d="M20 7H0V9H20V7Z" fill="#FF5166"/>
</g>
</g>
<defs>
<clipPath id="clip0_350_511">
<rect width="20" height="16" fill="white"/>
</clipPath>
</defs>
</svg>
