<svg width="32" height="32" viewBox="0 0 32 32" fill="none" xmlns="http://www.w3.org/2000/svg">
<path d="M0 16C0 10.3995 0 7.59921 1.08993 5.46009C2.04867 3.57847 3.57847 2.04867 5.46009 1.08993C7.59921 0 10.3995 0 16 0C21.6005 0 24.4008 0 26.5399 1.08993C28.4215 2.04867 29.9513 3.57847 30.9101 5.46009C32 7.59921 32 10.3995 32 16C32 21.6005 32 24.4008 30.9101 26.5399C29.9513 28.4215 28.4215 29.9513 26.5399 30.9101C24.4008 32 21.6005 32 16 32C10.3995 32 7.59921 32 5.46009 30.9101C3.57847 29.9513 2.04867 28.4215 1.08993 26.5399C0 24.4008 0 21.6005 0 16Z" fill="#262626"/>
<g clip-path="url(#clip0_345_9440)">
<path fill-rule="evenodd" clip-rule="evenodd" d="M13 24C10.2386 24 8 21.7614 8 19V13C8 10.2386 10.2386 8 13 8L13.3333 8C13.8856 8 14.3333 8.44772 14.3333 9C14.3333 9.55229 13.8856 10 13.3333 10H13C11.3431 10 10 11.3431 10 13L10 19C10 20.6569 11.3431 22 13 22L19 22C20.6569 22 22 20.6569 22 19L22 12.5C22 11.1193 20.8807 10 19.5 10C18.1193 10 17 11.1193 17 12.5V13.1707C18.1652 13.5825 19 14.6938 19 16C19 17.6569 17.6569 19 16 19C14.3431 19 13 17.6569 13 16C13 14.6938 13.8348 13.5825 15 13.1707V12.5C15 10.0147 17.0147 8 19.5 8C21.9853 8 24 10.0147 24 12.5L24 19C24 21.7614 21.7614 24 19 24L13 24Z" fill="white"/>
</g>
<defs>
<clipPath id="clip0_345_9440">
<rect width="16" height="16" fill="white" transform="translate(8 8)"/>
</clipPath>
</defs>
</svg>
