<svg width="32" height="32" viewBox="0 0 32 32" fill="none" xmlns="http://www.w3.org/2000/svg">
<path d="M0 16C0 10.3995 0 7.59921 1.08993 5.46009C2.04867 3.57847 3.57847 2.04867 5.46009 1.08993C7.59921 0 10.3995 0 16 0C21.6005 0 24.4008 0 26.5399 1.08993C28.4215 2.04867 29.9513 3.57847 30.9101 5.46009C32 7.59921 32 10.3995 32 16C32 21.6005 32 24.4008 30.9101 26.5399C29.9513 28.4215 28.4215 29.9513 26.5399 30.9101C24.4008 32 21.6005 32 16 32C10.3995 32 7.59921 32 5.46009 30.9101C3.57847 29.9513 2.04867 28.4215 1.08993 26.5399C0 24.4008 0 21.6005 0 16Z" fill="#262626"/>
<g clip-path="url(#clip0_345_9450)">
<path fill-rule="evenodd" clip-rule="evenodd" d="M10.6667 9C10.6667 8.44772 10.219 8 9.66667 8C9.11438 8 8.66667 8.44772 8.66667 9V14.3332C8.26185 14.6373 8 15.1214 8 15.6667C8 16.5871 8.74619 17.3333 9.66667 17.3333C10.5871 17.3333 11.3333 16.5871 11.3333 15.6667C11.3333 15.1214 11.0715 14.6373 10.6667 14.3332V9ZM21.3333 11.0001C20.9285 10.6961 20.6667 10.2119 20.6667 9.66667C20.6667 8.74619 21.4129 8 22.3333 8C23.2538 8 24 8.74619 24 9.66667C24 10.2119 23.7381 10.6961 23.3333 11.0001V17.6667C23.3333 18.219 22.8856 18.6667 22.3333 18.6667C21.781 18.6667 21.3333 18.219 21.3333 17.6667V11.0001ZM16 8C16.5523 8 17 8.44772 17 9V14.3332C17.4048 14.6373 17.6667 15.1214 17.6667 15.6667C17.6667 16.2119 17.4048 16.6961 17 17.0001V23C17 23.5523 16.5523 24 16 24C15.4477 24 15 23.5523 15 23V17.0001C14.5952 16.6961 14.3333 16.2119 14.3333 15.6667C14.3333 15.1214 14.5952 14.6373 15 14.3332V9C15 8.44772 15.4477 8 16 8ZM24 22.3333C24 23.2538 23.2538 24 22.3333 24C21.4129 24 20.6667 23.2538 20.6667 22.3333C20.6667 21.4129 21.4129 20.6667 22.3333 20.6667C23.2538 20.6667 24 21.4129 24 22.3333ZM10.6667 20.3333C10.6667 19.781 10.219 19.3333 9.66667 19.3333C9.11438 19.3333 8.66667 19.781 8.66667 20.3333V23C8.66667 23.5523 9.11438 24 9.66667 24C10.219 24 10.6667 23.5523 10.6667 23V20.3333Z" fill="white"/>
</g>
<defs>
<clipPath id="clip0_345_9450">
<rect width="16" height="16" fill="white" transform="translate(8 8)"/>
</clipPath>
</defs>
</svg>
