<svg width="32" height="32" viewBox="0 0 32 32" fill="none" xmlns="http://www.w3.org/2000/svg">
<path d="M0 16C0 10.3995 0 7.59921 1.08993 5.46009C2.04867 3.57847 3.57847 2.04867 5.46009 1.08993C7.59921 0 10.3995 0 16 0C21.6005 0 24.4008 0 26.5399 1.08993C28.4215 2.04867 29.9513 3.57847 30.9101 5.46009C32 7.59921 32 10.3995 32 16C32 21.6005 32 24.4008 30.9101 26.5399C29.9513 28.4215 28.4215 29.9513 26.5399 30.9101C24.4008 32 21.6005 32 16 32C10.3995 32 7.59921 32 5.46009 30.9101C3.57847 29.9513 2.04867 28.4215 1.08993 26.5399C0 24.4008 0 21.6005 0 16Z" fill="#262626"/>
<g clip-path="url(#clip0_345_9397)">
<path fill-rule="evenodd" clip-rule="evenodd" d="M17.6667 23C17.6667 23.5523 18.1144 24 18.6667 24H19C21.7614 24 24 21.7614 24 19V13C24 10.2386 21.7614 8 19 8L18.6667 8C18.1144 8 17.6667 8.44772 17.6667 9C17.6667 9.55228 18.1144 10 18.6667 10H19C20.6569 10 22 11.3431 22 13L22 19C22 20.6569 20.6569 22 19 22H18.6667C18.1144 22 17.6667 22.4477 17.6667 23ZM13 22C11.3431 22 10 20.6569 10 19L10 13C10 11.3431 11.3431 10 13 10H13.3333C13.8856 10 14.3333 9.55229 14.3333 9C14.3333 8.44772 13.8856 8 13.3333 8L13 8C10.2386 8 8 10.2386 8 13L8 19C8 21.7614 10.2386 24 13 24H13.3333C13.8856 24 14.3333 23.5523 14.3333 23C14.3333 22.4477 13.8856 22 13.3333 22H13Z" fill="white"/>
<path d="M19 16C19 17.6569 17.6569 19 16 19C14.3431 19 13 17.6569 13 16C13 14.3431 14.3431 13 16 13C17.6569 13 19 14.3431 19 16Z" fill="white"/>
</g>
<defs>
<clipPath id="clip0_345_9397">
<rect width="16" height="16" fill="white" transform="translate(8 8)"/>
</clipPath>
</defs>
</svg>
