<svg width="32" height="32" viewBox="0 0 32 32" fill="none" xmlns="http://www.w3.org/2000/svg">
<path d="M0 16C0 10.3995 0 7.59921 1.08993 5.46009C2.04867 3.57847 3.57847 2.04867 5.46009 1.08993C7.59921 0 10.3995 0 16 0C21.6005 0 24.4008 0 26.5399 1.08993C28.4215 2.04867 29.9513 3.57847 30.9101 5.46009C32 7.59921 32 10.3995 32 16C32 21.6005 32 24.4008 30.9101 26.5399C29.9513 28.4215 28.4215 29.9513 26.5399 30.9101C24.4008 32 21.6005 32 16 32C10.3995 32 7.59921 32 5.46009 30.9101C3.57847 29.9513 2.04867 28.4215 1.08993 26.5399C0 24.4008 0 21.6005 0 16Z" fill="#262626"/>
<g clip-path="url(#clip0_345_9445)">
<path fill-rule="evenodd" clip-rule="evenodd" d="M10 19C10 20.6569 11.3431 22 13 22C13.5523 22 14 22.4477 14 23C14 23.5523 13.5523 24 13 24C10.2386 24 8 21.7614 8 19C8 18.4477 8.44771 18 9 18C9.55228 18 10 18.4477 10 19ZM10 13C10 13.5523 9.55228 14 9 14C8.44771 14 8 13.5523 8 13C8 10.2386 10.2386 8 13 8C13.5523 8 14 8.44772 14 9C14 9.55228 13.5523 10 13 10C11.3431 10 10 11.3431 10 13ZM22 13C22 11.3431 20.6569 10 19 10C18.4477 10 18 9.55229 18 9C18 8.44772 18.4477 8 19 8C21.7614 8 24 10.2386 24 13C24 13.5523 23.5523 14 23 14C22.4477 14 22 13.5523 22 13ZM22 19C22 18.4477 22.4477 18 23 18C23.5523 18 24 18.4477 24 19C24 21.7614 21.7614 24 19 24C18.4477 24 18 23.5523 18 23C18 22.4477 18.4477 22 19 22C20.6569 22 22 20.6569 22 19Z" fill="white"/>
<path d="M18.6663 16.0002C18.6663 17.4729 17.4724 18.6668 15.9997 18.6668C14.5269 18.6668 13.333 17.4729 13.333 16.0002C13.333 14.5274 14.5269 13.3335 15.9997 13.3335C17.4724 13.3335 18.6663 14.5274 18.6663 16.0002Z" fill="white"/>
<path d="M13 15C13 13.8954 13.8954 13 15 13H17C18.1046 13 19 13.8954 19 15V17C19 18.1046 18.1046 19 17 19H15C13.8954 19 13 18.1046 13 17V15Z" fill="white"/>
</g>
<defs>
<clipPath id="clip0_345_9445">
<rect width="16" height="16" fill="white" transform="translate(8 8)"/>
</clipPath>
</defs>
</svg>
