<svg width="16" height="16" viewBox="0 0 16 16" fill="none" xmlns="http://www.w3.org/2000/svg">
<path fill-rule="evenodd" clip-rule="evenodd" d="M6 5C6 3.89543 6.89543 3 8 3C9.10457 3 10 3.89543 10 5V6H6V5ZM4 6V5C4 2.79086 5.79086 1 8 1C10.2091 1 12 2.79086 12 5V6C13.1046 6 14 6.89543 14 8V13C14 14.1046 13.1046 15 12 15H4C2.89543 15 2 14.1046 2 13V8C2 6.89543 2.89543 6 4 6ZM9.5 10.5C9.5 11.3284 8.82843 12 8 12C7.17157 12 6.5 11.3284 6.5 10.5C6.5 9.67157 7.17157 9 8 9C8.82843 9 9.5 9.67157 9.5 10.5Z" fill="white"/>
</svg>
