<svg width="960" height="460" viewBox="0 0 960 460" fill="none" xmlns="http://www.w3.org/2000/svg">
<g clip-path="url(#clip0_345_10443)">
<rect width="960" height="460" fill="white"/>
<g clip-path="url(#clip1_345_10443)">
<rect width="960" height="460" fill="#E9E6E1"/>
<g clip-path="url(#clip2_345_10443)">
<path d="M579.53 156.568C578.997 156.568 578.487 156.781 578.111 157.159L573.113 162.188C572.737 162.566 572.227 162.778 571.694 162.778H569.888C568.783 162.778 567.888 163.674 567.888 164.778V171.61C567.888 172.141 568.098 172.649 568.473 173.024L570.782 175.333C571.85 176.401 571.094 178.227 569.583 178.227V178.227C568.647 178.227 567.888 178.986 567.888 179.923V184.124C567.888 185.229 568.783 186.124 569.888 186.124H577.872C578.401 186.124 578.908 185.914 579.283 185.541L588.46 176.398C588.836 176.023 589.048 175.513 589.048 174.981V158.568C589.048 157.464 588.153 156.568 587.048 156.568H579.53Z" fill="#D8CFC5"/>
<path d="M595.139 134.942C595.117 135.439 594.91 135.911 594.56 136.264L590.836 140.012C590.059 140.794 590.061 142.057 590.841 142.836L595.132 147.128C595.507 147.503 595.718 148.011 595.718 148.542V159.399C595.718 160.503 596.613 161.399 597.718 161.399H602.02C602.55 161.399 603.059 161.609 603.434 161.985L606.566 165.116C607.349 165.899 607.346 167.169 606.561 167.95L603.05 171.436C602.675 171.808 602.168 172.017 601.64 172.017H599.443C598.338 172.017 597.443 172.913 597.443 174.017V182.783C597.443 183.887 598.338 184.783 599.443 184.783H601.307C603.09 184.783 603.982 186.94 602.719 188.199L594.525 196.371C593.636 197.257 594.264 198.774 595.518 198.774V198.774C595.892 198.774 596.25 198.626 596.513 198.362L600.959 193.917C601.334 193.542 601.843 193.331 602.373 193.331H607.985H624.999C626.103 193.331 626.999 192.436 626.999 191.331V187.719C626.999 187.189 627.209 186.68 627.584 186.305L631.128 182.762C631.503 182.387 631.714 181.878 631.714 181.347V179.039C631.714 177.934 630.818 177.039 629.714 177.039H627.082C625.977 177.039 625.082 176.144 625.082 175.039V169.012C625.082 168.482 624.871 167.973 624.496 167.598L607.678 150.78L606.984 150.086C606.203 149.305 606.203 148.039 606.984 147.258L610.389 143.852C610.764 143.477 610.975 142.969 610.975 142.438V137.715C610.975 136.61 610.079 135.715 608.975 135.715H605.423C604.319 135.715 603.423 134.819 603.423 133.715V133.285C603.423 132.754 603.634 132.246 604.009 131.871L610.082 125.797C610.457 125.422 610.668 124.913 610.668 124.383V123.225C610.668 122.12 609.773 121.225 608.668 121.225H604.831C604.298 121.225 603.787 121.437 603.411 121.816L599.678 125.578C599.303 125.957 598.791 126.17 598.258 126.17H597.44C596.37 126.17 595.489 127.012 595.442 128.081L595.139 134.942Z" fill="#D8CFC5"/>
<path d="M119.039 360.115C118.762 360.468 118.612 360.903 118.612 361.351V405.21C118.612 405.745 118.827 406.258 119.208 406.634L134.128 421.341C134.503 421.71 135.007 421.917 135.532 421.917H153.02C153.546 421.917 154.051 421.71 154.425 421.34L168.552 407.39C168.927 407.021 169.431 406.814 169.957 406.814H176.298C177.403 406.814 178.298 407.709 178.298 408.814V432.031C178.298 433.135 179.194 434.031 180.298 434.031H193.165C194.27 434.031 195.165 434.926 195.165 436.031V467.238C195.165 467.771 195.378 468.283 195.757 468.658L204.126 476.96C204.5 477.331 205.006 477.54 205.534 477.54H225.289C226.394 477.54 227.289 478.435 227.289 479.54V484.242C227.289 485.346 226.394 486.242 225.289 486.242H206.627H197.484C196.956 486.242 196.45 486.033 196.076 485.662L188.466 478.119C188.092 477.748 187.586 477.54 187.058 477.54H180.298C179.194 477.54 178.298 476.644 178.298 475.54V466.644C178.298 466.11 178.085 465.598 177.705 465.223L171.638 459.219C171.263 458.849 170.758 458.641 170.231 458.641H158.459C157.932 458.641 157.426 458.433 157.052 458.062L137.405 438.597C137.031 438.226 136.525 438.017 135.998 438.017H105.672C105.146 438.017 104.64 437.81 104.266 437.439L79.7595 413.189C79.3799 412.813 79.1663 412.301 79.1663 411.767V399.329C79.1663 398.795 78.9528 398.284 78.5733 397.908L57.0272 376.58C56.6477 376.204 56.4342 375.692 56.4342 375.159V366.785C56.4342 366.25 56.2203 365.738 55.8401 365.362L33.7037 343.481C33.3834 343.165 32.9512 342.987 32.5008 342.987V342.987C30.9715 342.987 30.2103 344.84 31.298 345.915L40.8898 355.395C41.27 355.771 41.4839 356.283 41.4839 356.818V365.877C41.4839 366.414 41.6998 366.928 42.083 367.304L45.624 370.779L56.3213 381.39C57.5891 382.647 56.6986 384.81 54.9128 384.81H52.1212C51.5935 384.81 51.0872 384.601 50.7126 384.23L37.3919 371.015C37.0173 370.643 36.511 370.434 35.9834 370.434H30.3353C29.2308 370.434 28.3353 369.539 28.3353 368.434V355.475C28.3353 354.941 28.1218 354.429 27.7422 354.054L17.6965 344.111C17.317 343.735 17.1034 343.223 17.1034 342.689V326.127C17.1034 325.022 16.208 324.127 15.1034 324.127H8.49508C7.96855 324.127 7.46326 323.919 7.08886 323.549L-8.82998 307.809C-9.20995 307.433 -9.42377 306.921 -9.42377 306.387V295.637C-9.42377 295.102 -9.63786 294.59 -10.0183 294.214L-18.2595 286.073C-18.6399 285.698 -18.854 285.185 -18.854 284.651V247.535V219.635C-18.854 218.53 -17.9585 217.635 -16.854 217.635H-13.8089C-13.2834 217.635 -12.7791 217.842 -12.4049 218.21L-11.0261 219.57C-9.76205 220.815 -7.62207 219.92 -7.62207 218.145V213.946C-7.62207 213.412 -7.83587 212.9 -8.2158 212.524L-24.2497 196.669C-24.6241 196.299 -25.1294 196.091 -25.656 196.091H-36.2127C-37.3172 196.091 -38.2127 195.196 -38.2127 194.091V188.225C-38.2127 187.69 -38.4266 187.178 -38.8069 186.802L-63.6572 162.244C-64.0316 161.874 -64.5367 161.667 -65.063 161.667H-69.9083C-71.0129 161.667 -71.9083 160.772 -71.9083 159.667V137.178C-71.9083 136.074 -72.8038 135.178 -73.9083 135.178H-82.5482C-83.0748 135.178 -83.5802 134.97 -83.9547 134.6L-96.9311 121.764C-97.3055 121.394 -97.8109 121.186 -98.3376 121.186H-130.002C-130.531 121.186 -131.038 120.977 -131.413 120.604L-137.679 114.37C-138.054 113.997 -138.561 113.788 -139.09 113.788H-144.123C-145.228 113.788 -146.123 114.683 -146.123 115.788V118.036C-146.123 119.141 -145.228 120.036 -144.123 120.036H-141.223C-140.118 120.036 -139.223 120.932 -139.223 122.036V122.56C-139.223 123.664 -140.118 124.56 -141.223 124.56H-153.696C-154.223 124.56 -154.728 124.767 -155.103 125.138L-163.462 133.404C-164.241 134.175 -165.496 134.175 -166.275 133.404L-167.725 131.97C-168.105 131.595 -168.319 131.082 -168.319 130.548V123.901C-168.319 123.366 -168.104 122.853 -167.723 122.477L-160.481 115.334C-160.1 114.958 -159.885 114.445 -159.885 113.91V113.482C-159.885 111.705 -162.029 110.81 -163.292 112.06L-167.169 115.896L-176.119 124.739C-176.5 125.115 -176.714 125.627 -176.714 126.162V133.576C-176.714 134.111 -176.928 134.623 -177.308 134.999L-199.092 156.528C-199.466 156.898 -199.971 157.105 -200.497 157.105H-209.587C-210.114 157.105 -210.619 157.313 -210.994 157.683L-223.97 170.519C-224.345 170.889 -224.85 171.097 -225.377 171.097H-229.998C-231.785 171.097 -232.675 168.931 -231.404 167.675L-215.747 152.201C-215.373 151.831 -214.868 151.623 -214.341 151.623H-205.097C-204.571 151.623 -204.066 151.416 -203.692 151.047L-192.909 140.403C-191.636 139.147 -192.526 136.98 -194.314 136.98H-208.054C-208.581 136.98 -209.086 137.187 -209.46 137.558L-212.217 140.283C-213.48 141.531 -215.623 140.637 -215.623 138.86V127.326C-215.623 126.222 -216.518 125.326 -217.623 125.326H-228.305C-229.409 125.326 -230.305 124.431 -230.305 123.326V115.251C-230.305 114.146 -231.2 113.251 -232.305 113.251H-239C-240.105 113.251 -241 112.356 -241 111.251V109.524C-241 108.99 -240.786 108.478 -240.407 108.102L-230.889 98.6873C-230.515 98.3169 -230.009 98.1091 -229.483 98.1091H-218.505C-217.4 98.1091 -216.505 97.2137 -216.505 96.1091V87.2289C-216.505 86.1243 -217.4 85.2289 -218.505 85.2289H-239C-240.105 85.2289 -241 84.3334 -241 83.2289V74.7169C-241 74.1826 -240.786 73.6705 -240.406 73.2949L-234.684 67.6364C-234.31 67.2661 -233.805 67.0585 -233.278 67.0585H-229.593C-229.067 67.0585 -228.561 67.2661 -228.187 67.6364L-221.828 73.9252C-220.564 75.1743 -218.421 74.2796 -218.421 72.5032V67.8937C-218.421 67.3592 -218.635 66.847 -219.015 66.4713L-237.914 47.7886C-238.294 47.4129 -238.508 46.9007 -238.508 46.3662V41.8413C-238.508 40.7367 -237.613 39.8413 -236.508 39.8413H-229.592C-229.066 39.8413 -228.562 39.6344 -228.187 39.2654L-212.872 24.1635C-212.498 23.7945 -211.993 23.5876 -211.468 23.5876H-181.37C-180.843 23.5876 -180.337 23.7959 -179.962 24.1671L-172.545 31.5183C-172.17 31.8895 -171.664 32.0978 -171.137 32.0978H-111.753C-111.227 32.0978 -110.723 32.305 -110.348 32.6746L-90.3562 52.4131C-89.9819 52.7827 -89.4771 52.9899 -88.9511 52.9899H-81.5368C-80.4322 52.9899 -79.5368 52.0945 -79.5368 50.9899V42.9362C-79.5368 42.4029 -79.3239 41.8918 -78.9453 41.5163L-70.5764 33.2146C-70.2018 32.843 -69.6956 32.6345 -69.1679 32.6345H-46.7003C-46.1744 32.6345 -45.6696 32.8416 -45.2953 33.2111L-40.5219 37.923C-40.1476 38.2924 -39.6428 38.4996 -39.1169 38.4996H-36.9951C-35.2064 38.4996 -34.3172 36.3311 -35.591 35.0753L-36.771 33.912C-38.0448 32.6563 -37.1556 30.4878 -35.3669 30.4878H-32.1724C-31.6461 30.4878 -31.1409 30.6953 -30.7665 31.0653L-18.7866 42.9055C-18.4122 43.2755 -17.9071 43.483 -17.3807 43.483H0.811432H27.8687C28.9733 43.483 29.8687 44.3785 29.8687 45.483V56.0116C29.8687 57.1162 30.7641 58.0116 31.8687 58.0116H45.464C46.5686 58.0116 47.464 57.1071 47.464 56.0025V56.0025C47.464 54.2258 49.6077 53.3093 50.8707 54.5589L58.586 62.1927C59.8489 63.4424 61.9926 62.5477 61.9926 60.771V47.1314C61.9926 46.0268 62.8881 45.1314 63.9926 45.1314H75.7368C76.2639 45.1314 76.7697 45.3395 77.1442 45.7104L83.9868 52.4876C84.3613 52.8585 84.8671 53.0666 85.3942 53.0666H116.296C116.822 53.0666 117.327 52.8592 117.701 52.4893L131.547 38.8107C132.34 38.0277 132.34 36.7481 131.547 35.9651L128.101 32.5603C127.309 31.7781 127.308 30.4999 128.099 29.7166L137.486 20.4177C138.264 19.6465 139.518 19.6454 140.298 20.4152L149.333 29.3336C150.126 30.1163 150.127 31.3963 149.334 32.1795L145.697 35.7734C144.905 36.5564 144.905 37.8359 145.698 38.6188L155.466 48.2684C156.244 49.0371 157.496 49.038 158.275 48.2704L163.128 43.4901C163.908 42.7214 165.162 42.7235 165.94 43.4948L167.701 45.241C168.491 46.0248 168.489 47.3031 167.697 48.0848L164.831 50.913C164.036 51.6968 164.037 52.9789 164.832 53.7618L172.756 61.5641C173.138 61.94 173.353 62.4534 173.353 62.9893V73.0468C173.353 73.5812 173.139 74.0934 172.759 74.4691L146.366 100.562L136.264 110.556C135.884 110.931 135.671 111.443 135.671 111.977V130.916C135.671 132.021 136.566 132.916 137.671 132.916H143.408C144.512 132.916 145.408 133.812 145.408 134.916V140.73C145.408 141.835 146.303 142.73 147.408 142.73H159.881C160.407 142.73 160.913 142.938 161.287 143.308L182.314 164.117C182.688 164.488 183.194 164.695 183.721 164.695H200.027C201.132 164.695 202.027 165.591 202.027 166.695V177.469C202.027 178.003 202.241 178.515 202.621 178.891L213.62 189.761C214.398 190.529 215.648 190.531 216.428 189.765L222.394 183.902C223.189 183.121 223.192 181.841 222.4 181.056L215.269 173.984C214.89 173.608 214.677 173.097 214.677 172.564V165.529C214.677 164.995 214.89 164.484 215.269 164.109L227.197 152.279C227.987 151.496 227.986 150.219 227.195 149.437L216.115 138.478C215.324 137.696 215.323 136.417 216.115 135.635L223.933 127.901C224.725 127.117 224.724 125.837 223.93 125.055L217.918 119.129C217.537 118.753 217.322 118.24 217.322 117.704V104.633C217.322 103.528 218.218 102.633 219.322 102.633H245.594C246.122 102.633 246.628 102.841 247.003 103.213L256.145 112.287C256.52 112.659 257.026 112.868 257.554 112.868H264.313C265.418 112.868 266.313 113.763 266.313 114.868V125.259C266.313 125.793 266.527 126.304 266.906 126.68L276.369 136.048C277.148 136.819 278.403 136.819 279.182 136.048L291.964 123.406C293.227 122.156 295.371 123.051 295.371 124.827V130.547C295.371 131.082 295.585 131.595 295.966 131.97L306.659 142.526C307.04 142.902 307.254 143.414 307.254 143.949V155.105C307.254 156.21 308.15 157.105 309.254 157.105H313.733H327.833C328.938 157.105 329.833 158.001 329.833 159.105V168.387C329.833 168.919 330.045 169.43 330.423 169.805L335.721 175.072C336.099 175.448 336.311 175.958 336.311 176.491V186.118C336.311 187.222 335.416 188.118 334.311 188.118H323.755C323.228 188.118 322.723 188.326 322.348 188.696L315.85 195.129C315.476 195.5 314.97 195.708 314.443 195.708H281.663C281.137 195.708 280.632 195.915 280.258 196.285L258.857 217.431C258.477 217.807 258.263 218.319 258.263 218.854V220.433C258.263 222.209 260.407 223.104 261.67 221.855L279.299 204.413C279.674 204.042 280.179 203.835 280.706 203.835H292.604C293.708 203.835 294.604 204.73 294.604 205.835V218.333C294.604 218.867 294.818 219.38 295.198 219.755L300.526 225.021C300.907 225.397 301.121 225.909 301.121 226.444V233.038C301.121 234.143 300.225 235.038 299.121 235.038H282.842C281.737 235.038 280.842 235.934 280.842 237.038V241.357C280.842 242.462 279.947 243.357 278.842 243.357H268.669C268.142 243.357 267.637 243.565 267.262 243.935L261.08 250.053C260.7 250.429 260.487 250.941 260.487 251.475V260.691C260.487 261.226 260.272 261.739 259.892 262.115L251.516 270.382L243.505 278.318L239.502 282.253C239.12 282.629 238.904 283.143 238.904 283.679V293.568C238.904 294.673 238.009 295.568 236.904 295.568H236.151C235.046 295.568 234.151 294.673 234.151 293.568V289.027C234.151 287.248 232.003 286.354 230.742 287.608L229.03 289.308C228.652 289.683 228.439 290.194 228.439 290.727V295.497C228.439 296.033 228.654 296.546 229.036 296.922L233.018 300.846C233.4 301.221 233.614 301.735 233.614 302.27V309.874C233.614 310.409 233.4 310.921 233.02 311.297L209.599 334.426C209.218 334.802 209.004 335.315 209.004 335.85V346.595C209.004 346.87 209.061 347.143 209.171 347.395L214.127 358.743C214.237 358.996 214.294 359.268 214.294 359.544V372.268C214.294 373.372 213.399 374.268 212.294 374.268H205.918C205.39 374.268 204.884 374.059 204.509 373.687L195.373 364.619C194.995 364.244 194.782 363.733 194.782 363.2V355.479C194.782 354.943 194.567 354.429 194.185 354.053L185.552 345.555C185.178 345.187 184.674 344.981 184.149 344.981H165.584C163.795 344.981 162.906 347.15 164.181 348.406L164.815 349.031C166.09 350.286 165.201 352.456 163.412 352.456H153.895C153.369 352.456 152.865 352.249 152.49 351.88L145.148 344.637C144.774 344.268 144.27 344.061 143.744 344.061H132.618C132.004 344.061 131.424 344.343 131.045 344.825L119.039 360.115Z" fill="#D8CFC5"/>
<path d="M419.915 75.5603C419.549 75.9342 419.343 76.4371 419.343 76.961V88.1875C419.343 88.7227 419.129 89.2355 418.748 89.6113L411.505 96.755C411.124 97.1309 410.91 97.6437 410.91 98.1789V121.831C410.91 122.936 410.014 123.831 408.91 123.831H397.203C396.676 123.831 396.171 123.623 395.796 123.253L385.887 113.446C385.512 113.076 385.007 112.868 384.48 112.868H377.308C376.781 112.868 376.276 112.66 375.901 112.29L360.176 96.7343C359.384 95.9509 359.385 94.6714 360.178 93.8889L368.987 85.1948C369.78 84.412 369.781 83.1319 368.988 82.3486L361.315 74.766C360.94 74.3961 360.435 74.1887 359.909 74.1887H353.262C352.157 74.1887 351.262 73.2932 351.262 72.1887V54.2854C351.262 53.7508 351.476 53.2384 351.856 52.8627L365.884 39.002C366.676 38.2192 366.677 36.9399 365.884 36.1569L349.698 20.1573C348.856 19.3254 347.428 19.9216 347.428 21.1051V21.1051C347.428 21.841 346.832 22.4376 346.096 22.4376H341.762C340.657 22.4376 339.762 21.5422 339.762 20.4376V-4.71149C339.762 -5.24566 339.548 -5.75764 339.168 -6.13331L318.917 -26.1668C318.543 -26.5372 318.037 -26.745 317.511 -26.745H290.096C289.57 -26.745 289.066 -26.5379 288.691 -26.1685L281.865 -19.4308C281.085 -18.6617 279.832 -18.6622 279.054 -19.4319L251.922 -46.251C251.13 -47.0347 251.131 -48.3152 251.924 -49.0977L257.948 -55.0349C258.322 -55.4038 258.826 -55.6106 259.352 -55.6106H287.687C288.213 -55.6106 288.719 -55.8183 289.093 -56.1888L294.278 -61.318C295.069 -62.1011 295.069 -63.3799 294.277 -64.1624L289.86 -68.5268C289.485 -68.8967 288.98 -69.1042 288.454 -69.1042H281.868C280.082 -69.1042 279.192 -71.2676 280.461 -72.5248L293.253 -85.2002C293.627 -85.5713 294.133 -85.7795 294.66 -85.7795H308.348C308.875 -85.7795 309.381 -85.9874 309.755 -86.3582L316.215 -92.7526C316.589 -93.1233 317.095 -93.3313 317.622 -93.3313H353.47C353.995 -93.3313 354.5 -93.1244 354.874 -92.7553L362.003 -85.7251C363.267 -84.4787 365.407 -85.374 365.407 -87.1491V-95.8547C365.407 -96.9593 366.302 -97.8547 367.407 -97.8547H383.329C383.856 -97.8547 384.363 -98.0631 384.737 -98.4346L388.168 -101.837C388.542 -102.208 389.048 -102.416 389.576 -102.416H413.155C413.681 -102.416 414.186 -102.624 414.561 -102.994L423.091 -111.423C423.465 -111.793 423.97 -112 424.496 -112H444.605H470.896C472 -112 472.896 -111.105 472.896 -110V-104.416C472.896 -103.312 473.791 -102.416 474.896 -102.416H499.635C500.162 -102.416 500.668 -102.208 501.043 -101.837L510.387 -92.5732C511.655 -91.3158 510.765 -89.1529 508.979 -89.1529H476.544C476.172 -89.1529 475.814 -89.0061 475.548 -88.7442V-88.7442C474.646 -87.8534 475.276 -86.3162 476.544 -86.3162H500.758C501.863 -86.3162 502.758 -85.4207 502.758 -84.3162V-76.9276C502.758 -75.1505 504.903 -74.2561 506.165 -75.5065L517.852 -87.079C518.227 -87.4498 518.732 -87.6579 519.259 -87.6579H539.426C539.953 -87.6579 540.459 -87.8661 540.833 -88.2373L548.251 -95.5886C548.625 -95.9598 549.131 -96.168 549.659 -96.168H561.622C562.149 -96.168 562.654 -95.9604 563.029 -95.5902L571.236 -87.4748C572.03 -86.6901 572.028 -85.4077 571.231 -84.6257L566.823 -80.2958C566.449 -79.9285 565.946 -79.7227 565.421 -79.7227H553.3C552.773 -79.7227 552.267 -79.5149 551.893 -79.1444L527.809 -55.3159C527.429 -54.9403 527.215 -54.4283 527.215 -53.8942V-42.3536C527.215 -41.249 528.111 -40.3536 529.215 -40.3536H533.649C534.753 -40.3536 535.649 -39.4582 535.649 -38.3536V-32.5401C535.649 -31.4355 534.753 -30.5401 533.649 -30.5401H520.82C519.715 -30.5401 518.82 -29.6446 518.82 -28.5401V-11.6722C518.82 -11.1374 518.606 -10.6248 518.225 -10.2491L507.994 -0.14646C507.216 0.621826 505.966 0.622859 505.186 -0.144143L499.892 -5.35501C499.518 -5.72322 499.014 -5.92958 498.489 -5.92958H494.791C493.687 -5.92958 492.791 -5.03415 492.791 -3.92958V3.91565C492.791 5.02022 493.687 5.91565 494.791 5.91565H511.453C512.558 5.91565 513.453 6.81108 513.453 7.91565V18.1914C513.453 18.7254 513.24 19.2373 512.86 19.6129L484.406 47.773C484.031 48.1436 483.526 48.3515 482.999 48.3515H463.021C462.496 48.3515 461.991 48.5587 461.616 48.9282L444.883 65.4468C444.508 65.8163 444.004 66.0235 443.478 66.0235H430.111C429.574 66.0235 429.06 66.2395 428.684 66.6229L419.915 75.5603Z" fill="#D8CFC5"/>
<path d="M504.292 70.8536V80.6374C504.292 81.1715 504.505 81.6835 504.885 82.0592L514.441 91.5125C514.815 91.8829 515.32 92.0907 515.847 92.0907H533.294C533.82 92.0907 534.325 91.8833 534.7 91.5134L551.843 74.576C552.635 73.7932 552.635 72.5139 551.843 71.7309L543.9 63.8794C543.526 63.5093 543.02 63.3018 542.494 63.3018H529.606C529.081 63.3018 528.577 63.5081 528.203 63.8763L522.908 69.0884C522.129 69.8549 520.879 69.8545 520.101 69.0873L516.721 65.7558C516.347 65.3869 515.842 65.1801 515.317 65.1801H506.292C505.187 65.1801 504.292 66.0756 504.292 67.1801V70.8536Z" fill="#D8CFC5"/>
<path d="M1610.01 52.1396C1609.98 52.1685 1609.94 52.1847 1609.9 52.1847H1597.16C1596.06 52.1847 1595.16 53.0801 1595.16 54.1847V57.9666C1595.16 59.7442 1593.02 60.6384 1591.76 59.3871L1587.09 54.7649C1586.71 54.3893 1586.5 53.8779 1586.5 53.3444V41.5344C1586.5 40.4299 1585.61 39.5344 1584.5 39.5344H1565.4C1564.87 39.5344 1564.36 39.3264 1563.99 38.9556L1553.43 28.498C1553.05 28.1272 1552.55 27.9192 1552.02 27.9192H1525.25C1524.14 27.9192 1523.25 28.8146 1523.25 29.9192V41.0612C1523.25 42.1657 1522.35 43.0612 1521.25 43.0612H1510.81C1510.28 43.0612 1509.78 42.853 1509.4 42.4821L1498.34 31.5267C1497.97 31.1557 1497.46 30.9476 1496.93 30.9476H1472.05C1471.53 30.9476 1471.02 31.1551 1470.65 31.5252L1466 36.1133C1465.22 36.8833 1463.97 36.8835 1463.19 36.1137L1452.42 25.4681C1452.04 25.0982 1451.54 24.8908 1451.01 24.8908H1410.98C1409.87 24.8908 1408.98 23.9954 1408.98 22.8908V7.22543C1408.98 6.12086 1408.08 5.22543 1406.98 5.22543H1399.1C1398.57 5.22543 1398.07 5.43202 1397.7 5.80057L1392.02 11.3909C1391.24 12.1593 1389.99 12.1575 1389.21 11.3869L1378.97 1.24279C1378.6 0.871799 1378.09 0.663672 1377.56 0.663672H1355.89C1354.78 0.663672 1353.89 1.5591 1353.89 2.66367V13.8056C1353.89 14.9102 1352.99 15.8056 1351.89 15.8056H1325.12C1324.59 15.8056 1324.09 16.0135 1323.71 16.3841L1310.91 29.0565C1310.13 29.828 1308.87 29.8278 1308.09 29.0561L1295.14 16.2339C1294.35 15.4498 1294.35 14.1699 1295.15 13.3879L1299.93 8.6794C1300.72 7.89698 1300.72 6.61611 1299.93 5.83225L1285.13 -8.80215C1284.75 -9.17227 1284.25 -9.37985 1283.72 -9.37985H1269.22C1268.11 -9.37985 1267.22 -8.48442 1267.22 -7.37985V1.80707C1267.22 2.91164 1266.32 3.80707 1265.22 3.80707H1257.84C1257.32 3.80707 1256.81 3.59864 1256.43 3.22718L1248.4 -4.73656C1248.03 -5.10802 1247.52 -5.31644 1247 -5.31644H1220.12C1219.59 -5.31644 1219.09 -5.10874 1218.71 -4.73841L1195.74 17.9892C1195.15 18.5681 1194.27 18.7292 1193.52 18.3952L1188.21 16.0367C1186.92 15.4651 1186.61 13.7769 1187.61 12.7865L1218.67 -17.9162C1219.05 -18.2919 1219.26 -18.8041 1219.26 -19.3385V-28.6169C1219.26 -29.7215 1218.36 -30.6169 1217.26 -30.6169H1181.47C1180.36 -30.6169 1179.47 -31.5124 1179.47 -32.6169V-45.0239C1179.47 -46.1285 1178.57 -47.0239 1177.47 -47.0239H1165.23C1164.7 -47.0239 1164.19 -46.816 1163.82 -46.4454L1149.42 -32.1886L1143.69 -26.5259C1142.91 -25.7553 1141.66 -25.7549 1140.88 -26.5251L1133.13 -34.1796C1132.76 -34.5496 1132.25 -34.757 1131.73 -34.757H1111.87C1111.34 -34.757 1110.83 -34.5491 1110.46 -34.1784L1096.41 -20.2704C1096.03 -19.8997 1095.53 -19.6917 1095 -19.6917H1077.09C1076.57 -19.6917 1076.06 -19.4847 1075.69 -19.1154L1062.42 -6.01881C1062.04 -5.643 1061.82 -5.13025 1061.82 -4.59519V16.7728C1061.82 17.3068 1061.61 17.8187 1061.23 18.1944L1057.91 21.4813C1056.64 22.7311 1054.5 21.8365 1054.5 20.0597V10.0092C1054.5 9.47469 1054.29 8.96238 1053.91 8.58665L1045.35 0.129396C1044.97 -0.240548 1044.47 -0.448013 1043.94 -0.448013H1036.58C1036.05 -0.448013 1035.54 -0.239881 1035.17 0.131117L1029.02 6.21871C1028.23 7.0016 1028.24 8.27894 1029.03 9.06134L1034.2 14.1836C1034.58 14.5592 1034.8 15.0712 1034.8 15.6053V23.8591C1034.8 25.6352 1032.65 26.5301 1031.39 25.2816L1025.58 19.5362C1025.2 19.1605 1024.98 18.6482 1024.98 18.1137V7.09546C1024.98 5.32005 1022.84 4.42484 1021.58 5.67188L1013.96 13.1866C1013.58 13.5624 1013.37 14.0751 1013.37 14.6102V52.5381C1013.37 53.0724 1013.15 53.5845 1012.77 53.9601L1003.49 63.1453C1003.11 63.5156 1002.61 63.7232 1002.08 63.7232H1000.1C998.315 63.7232 997.426 61.5578 998.696 60.3011L1008.4 50.7018C1008.78 50.3261 1009 49.814 1009 49.2797V9.67881C1009 8.57424 1008.1 7.67881 1007 7.67881H992.3C991.774 7.67881 991.269 7.88583 990.895 8.25507L980.651 18.3617C980.27 18.7375 980.055 19.2503 980.055 19.7854V40.6458C980.055 42.4225 977.912 43.3171 976.649 42.0676L962.661 28.2291C962.287 27.8587 961.781 27.6509 961.255 27.6509H938.663C936.875 27.6509 935.985 29.8192 937.259 31.075L941.277 35.0369C942.551 36.2927 941.661 38.4611 939.873 38.4611H893.782C893.256 38.4611 892.75 38.6685 892.376 39.0384L875.086 56.1228C874.306 56.8931 873.052 56.8925 872.273 56.1214L865.509 49.4245C864.246 48.1743 862.102 49.0688 862.102 50.8458V56.8548C862.102 57.9594 861.206 58.8548 860.102 58.8548H846.937C846.411 58.8548 845.906 59.0621 845.532 59.4317L830.859 73.9201L820.035 84.6422C819.257 85.4133 818.003 85.4146 817.223 84.6451L810.678 78.1876C810.297 77.8117 810.082 77.2989 810.082 76.7638V65.1866C810.082 64.082 809.187 63.1866 808.082 63.1866H805.744C803.957 63.1866 803.067 61.0226 804.337 59.7655L807.372 56.7592C808.151 55.9876 809.407 55.9872 810.186 56.7582L818.66 65.1386C819.034 65.5089 819.539 65.7166 820.066 65.7166H828.121C828.647 65.7166 829.152 65.5092 829.527 65.1393L840.383 54.4122C841.175 53.6293 841.176 52.35 840.383 51.567L825.962 37.3136C825.587 36.9436 825.082 36.736 824.556 36.736H801.973C801.446 36.736 800.94 36.5282 800.566 36.1576L794.336 29.9927C793.962 29.6221 793.456 29.4142 792.929 29.4142H782.843C782.317 29.4142 781.812 29.2067 781.437 28.8366L775.974 23.4367C775.6 23.0666 775.095 22.8591 774.568 22.8591H747.651C747.126 22.8591 746.621 23.0661 746.247 23.4352L736.183 33.3616C735.809 33.7307 735.304 33.9377 734.779 33.9377H724.192C723.666 33.9377 723.161 34.1452 722.786 34.5152L694.371 62.5994C693.99 62.9751 693.777 63.4874 693.777 64.0219V75.6002C693.777 76.7047 692.881 77.6002 691.777 77.6002H684.545C683.44 77.6002 682.545 78.4956 682.545 79.6002V89.2471C682.545 90.3517 681.649 91.2471 680.545 91.2471H672.365C671.838 91.2471 671.333 91.4549 670.958 91.8254L658.493 104.159C657.7 104.943 657.702 106.224 658.496 107.006L663.273 111.712C664.068 112.495 664.069 113.777 663.274 114.561L654.582 123.129C654.2 123.504 653.986 124.018 653.986 124.553V134.826C653.986 135.931 654.881 136.826 655.986 136.826H673.558C674.084 136.826 674.589 136.619 674.964 136.249L682.136 129.167C682.915 128.398 684.168 128.398 684.947 129.168L696.307 140.391L703.526 147.514C704.305 148.283 705.558 148.283 706.336 147.513L714.496 139.445C714.876 139.069 715.09 138.557 715.09 138.023V131.718C715.09 131.185 715.303 130.673 715.682 130.298L724.367 121.684L728.137 117.969C728.931 117.187 728.933 115.907 728.14 115.123L723.121 110.158C722.741 109.782 722.527 109.27 722.527 108.736V93.0397C722.527 92.5059 722.741 91.9941 723.12 91.6185L737.976 76.9102L742.145 72.8078C742.519 72.4397 743.023 72.2334 743.548 72.2334H758.248C760.037 72.2334 760.926 74.4011 759.653 75.6571L757.373 77.9069L738.186 96.8701C737.806 97.2458 737.592 97.758 737.592 98.2925V112.094C737.592 113.199 738.488 114.094 739.592 114.094H742.492C743.597 114.094 744.492 114.99 744.492 116.094V118.623C744.492 120.398 746.635 121.293 747.898 120.045L753.338 114.671C753.713 114.302 754.218 114.094 754.744 114.094H775.082C776.87 114.094 777.759 116.26 776.488 117.517L770.837 123.1C770.463 123.47 769.958 123.678 769.432 123.678H755.923C754.818 123.678 753.923 124.573 753.923 125.678V136.551C753.923 137.656 753.027 138.551 751.923 138.551H739.592C738.488 138.551 737.592 139.447 737.592 140.551V156.485C737.592 157.59 736.697 158.485 735.592 158.485H730.929C729.824 158.485 728.929 159.381 728.929 160.485V161.261C728.929 163.035 726.79 163.931 725.526 162.686L722.821 160.023C722.042 159.255 720.79 159.256 720.012 160.025L715.521 164.463C715.147 164.833 714.642 165.04 714.115 165.04H704.718C704.192 165.04 703.687 164.833 703.312 164.463L691.217 152.508C690.843 152.138 690.338 151.93 689.811 151.93H685.771C684.667 151.93 683.771 151.035 683.771 149.93V143.347C683.771 141.57 681.627 140.675 680.364 141.926L676.467 145.785C676.088 146.16 675.874 146.672 675.874 147.206V170.263C675.874 170.797 675.661 171.308 675.282 171.684L672.396 174.543C672.021 174.914 671.515 175.122 670.988 175.122H651.807C650.703 175.122 649.807 176.018 649.807 177.122V188.087C649.807 188.622 649.593 189.134 649.213 189.51L643.29 195.362L630.688 207.819C630.314 208.189 629.808 208.396 629.282 208.396H622.875C622.349 208.396 621.843 208.604 621.469 208.974L615.738 214.642C615.363 215.012 614.858 215.22 614.331 215.22H607.953C606.849 215.22 605.953 216.115 605.953 217.22V219.66C605.953 220.764 606.849 221.66 607.953 221.66H612.377C612.903 221.66 613.408 221.867 613.783 222.237L622.149 230.503C622.529 230.878 622.743 231.391 622.743 231.925V247.239C622.743 247.772 622.531 248.283 622.153 248.659L618.038 252.743C617.664 253.115 617.157 253.324 616.629 253.324H608.231C607.705 253.324 607.2 253.116 606.826 252.747L601.976 247.959C601.601 247.589 601.096 247.382 600.57 247.382H584.617C584.091 247.382 583.586 247.589 583.212 247.959L577.638 253.466C576.367 254.722 577.256 256.889 579.044 256.889H581.796C582.901 256.889 583.796 257.784 583.796 258.889V267.362C583.796 267.896 583.582 268.409 583.202 268.784L574.615 277.27C574.235 277.646 574.021 278.158 574.021 278.693V286.261C574.021 286.795 574.235 287.307 574.615 287.683L583.672 296.638C584.046 297.009 584.551 297.216 585.078 297.216H591.035C592.097 297.216 592.958 298.077 592.958 299.139V299.139C592.958 300.846 595.015 301.707 596.231 300.509L600.041 296.756C600.415 296.388 600.919 296.181 601.444 296.181H614.333C614.859 296.181 615.363 295.974 615.737 295.605L622.607 288.833C622.989 288.458 623.203 287.945 623.203 287.409V276.393C623.203 275.858 623.418 275.346 623.798 274.97L638.403 260.543C638.783 260.167 638.997 259.655 638.997 259.12V249.382C638.997 248.277 639.893 247.382 640.997 247.382H651.092C651.62 247.382 652.126 247.59 652.5 247.962L655.38 250.819C656.158 251.591 657.412 251.593 658.193 250.824L664.25 244.852C664.625 244.484 665.129 244.277 665.654 244.277H675.59C676.116 244.277 676.621 244.484 676.996 244.854L685.631 253.388C686.011 253.764 686.225 254.276 686.225 254.811V260.14C686.225 261.245 687.12 262.14 688.225 262.14H692.417C692.944 262.14 693.45 262.348 693.824 262.719L708.326 277.079C708.705 277.454 708.918 277.966 708.918 278.5V289.903C708.918 291.678 711.059 292.574 712.323 291.327L716.948 286.763C717.329 286.387 717.544 285.875 717.544 285.34V280.049C717.544 278.945 718.439 278.049 719.544 278.049H724.169C725.273 278.049 726.169 277.154 726.169 276.049V274.647C726.169 273.95 725.807 273.304 725.212 272.941L715.211 266.823C715.08 266.743 714.958 266.648 714.849 266.539L692.492 244.442C692.112 244.067 691.898 243.554 691.898 243.02V238.208C691.898 236.433 694.038 235.537 695.302 236.783L699.872 241.287L706.762 248.107C707.137 248.477 707.642 248.685 708.169 248.685H721.14C722.245 248.685 723.14 249.581 723.14 250.685V258.316C723.14 258.85 723.354 259.362 723.734 259.737L729.831 265.77C730.21 266.146 730.424 266.658 730.424 267.192V279.116C730.424 280.22 731.319 281.116 732.424 281.116H736.474C737.579 281.116 738.474 282.011 738.474 283.116V289.364C738.474 289.9 738.689 290.413 739.07 290.789L743.12 294.781C744.384 296.027 746.524 295.131 746.524 293.356V278.155C746.524 277.621 746.738 277.109 747.117 276.734L756.827 267.127C757.201 266.757 757.707 266.549 758.233 266.549H775.498C776.603 266.549 777.498 265.653 777.498 264.549V253.393C777.498 252.858 777.713 252.345 778.093 251.97L791.547 238.692C791.927 238.317 792.142 237.804 792.142 237.269V231.671C792.142 230.567 793.037 229.671 794.142 229.671H798.46C799.565 229.671 800.46 230.567 800.46 231.671V238.686C800.46 239.222 800.675 239.735 801.057 240.111L806.529 245.498C807.309 246.266 808.561 246.265 809.339 245.495L814.634 240.255C815.009 239.884 815.514 239.677 816.041 239.677H826.434C826.96 239.677 827.466 239.884 827.84 240.255L837.843 250.15C837.915 250.221 837.992 250.287 838.074 250.346L846.815 256.692C847.814 257.417 847.924 258.866 847.045 259.734L840.299 266.394C839.924 266.763 839.42 266.971 838.894 266.971H822.175C821.648 266.971 821.142 266.762 820.768 266.391L817.874 263.525C817.499 263.154 816.993 262.945 816.466 262.945H799.749C799.223 262.945 798.717 263.153 798.342 263.524L784.216 277.509C783.842 277.879 783.336 278.087 782.809 278.087H770.336C769.232 278.087 768.336 278.983 768.336 280.087V285.302C768.336 285.837 768.55 286.349 768.931 286.725L786.058 303.646C786.838 304.417 788.092 304.416 788.871 303.645L794.279 298.293C794.653 297.922 795.159 297.714 795.686 297.714H818.279C819.384 297.714 820.279 298.61 820.279 299.714V311.409C820.279 311.943 820.066 312.454 819.686 312.83L801.582 330.755C801.207 331.126 800.701 331.333 800.174 331.333H790.168C789.64 331.333 789.133 331.542 788.758 331.914L784.255 336.388C783.88 336.76 783.374 336.969 782.845 336.969H752.444C751.918 336.969 751.413 336.761 751.038 336.391L739.097 324.589C738.722 324.219 738.217 324.012 737.691 324.012H731.312C730.208 324.012 729.312 324.907 729.312 326.012V339.117C729.312 340.893 727.169 341.788 725.906 340.539L723.035 337.7C722.66 337.33 722.155 337.122 721.629 337.122H714.34C713.814 337.122 713.309 336.914 712.934 336.544L700.839 324.589C700.465 324.219 699.96 324.012 699.433 324.012H683.893C682.788 324.012 681.893 323.116 681.893 322.012V313.693C681.893 313.158 682.108 312.645 682.489 312.269L688.501 306.343C689.294 305.561 689.296 304.281 688.504 303.497L683.244 298.293C682.87 297.922 682.364 297.714 681.837 297.714H630.696C630.169 297.714 629.663 297.923 629.289 298.294L618.23 309.249C617.855 309.62 617.349 309.828 616.822 309.828H594.738C594.211 309.828 593.706 310.035 593.332 310.405L575.382 328.14C575.002 328.515 574.787 329.028 574.787 329.562V357.011C574.787 358.115 573.892 359.011 572.787 359.011H564.109C563.583 359.011 563.077 359.218 562.703 359.589L538.657 383.379C538.277 383.755 538.063 384.267 538.063 384.801V399.001C538.063 399.536 538.278 400.048 538.658 400.424L543.602 405.306C543.983 405.682 544.197 406.194 544.197 406.729V434.577C544.197 435.11 543.984 435.622 543.605 435.997L532.636 446.869C531.846 447.652 531.847 448.929 532.638 449.711L561.582 478.333C561.962 478.708 562.176 479.22 562.176 479.755V492.077C562.176 492.611 562.389 493.123 562.769 493.499L579.378 509.929C579.753 510.299 580.258 510.507 580.785 510.507H619.891C620.417 510.507 620.922 510.3 621.296 509.93L635.155 496.248C635.529 495.879 636.034 495.672 636.56 495.672H650.107C651.212 495.672 652.107 496.567 652.107 497.672V508.507C652.107 509.612 653.003 510.507 654.107 510.507H680.698C681.803 510.507 682.698 511.402 682.698 512.507V526.885C682.698 527.419 682.485 527.93 682.106 528.306L671.522 538.793C670.732 539.576 670.733 540.854 671.524 541.637L694.37 564.201C694.751 564.577 694.965 565.089 694.965 565.624V616.164C694.965 616.698 694.751 617.211 694.371 617.586L688.658 623.235C688.279 623.611 688.065 624.123 688.065 624.658V647.943C688.065 648.477 688.279 648.99 688.659 649.365L711.2 671.651C711.58 672.027 711.794 672.539 711.794 673.074V703.258C711.794 703.793 712.008 704.306 712.388 704.681L720.361 712.554C720.741 712.93 720.955 713.442 720.955 713.977V731.166C720.955 731.7 721.17 732.213 721.55 732.589L728.719 739.668C729.51 740.449 729.512 741.726 728.723 742.51L724.651 746.557C724.273 746.932 724.06 747.443 724.06 747.975V755.724C724.06 756.828 724.956 757.724 726.06 757.724H743.134C743.661 757.724 744.166 757.516 744.54 757.146L750.272 751.478C750.646 751.108 751.151 750.9 751.678 750.9H763.796C764.323 750.9 764.828 750.692 765.202 750.322L804.886 711.076C805.678 710.293 805.678 709.013 804.885 708.231L800.825 704.221C800.444 703.846 800.23 703.333 800.23 702.798V696.894C800.23 695.789 801.126 694.894 802.23 694.894H813.104C814.208 694.894 815.104 693.999 815.104 692.894V671.503C815.104 670.968 814.89 670.455 814.509 670.08L807.343 663.003C806.551 662.221 806.55 660.942 807.341 660.159L820.998 646.635C821.372 646.264 821.878 646.056 822.405 646.056H833.413C833.938 646.056 834.442 645.85 834.817 645.481L841.495 638.9C841.876 638.524 842.091 638.011 842.091 637.476V603.382C842.091 602.848 841.878 602.336 841.498 601.96L835.324 595.851C834.945 595.475 834.731 594.963 834.731 594.429V557.65C834.731 557.115 834.945 556.603 835.325 556.227L881.556 510.519C881.936 510.143 882.15 509.631 882.15 509.097V495.203C882.15 494.669 882.364 494.157 882.744 493.781L898.538 478.165C898.918 477.789 899.132 477.277 899.132 476.743V462.328C899.132 461.223 898.237 460.328 897.132 460.328H872.544C872.018 460.328 871.513 460.535 871.139 460.904L863.874 468.07C863.5 468.439 862.995 468.646 862.469 468.646H858.39C857.285 468.646 856.39 467.751 856.39 466.646V461.163C856.39 460.629 856.176 460.116 855.795 459.741L830.955 435.193C830.575 434.817 830.361 434.305 830.361 433.77V424.863C830.361 424.327 830.146 423.814 829.764 423.438L823.329 417.099C822.947 416.724 822.732 416.21 822.732 415.674V399.905C822.732 399.371 822.518 398.858 822.138 398.483L813.743 390.189C813.363 389.813 813.149 389.3 813.149 388.766V356.487C813.149 355.383 814.044 354.487 815.149 354.487H815.864C816.969 354.487 817.864 355.383 817.864 356.487V373.548C817.864 374.082 818.078 374.594 818.458 374.97L834.099 390.433C834.479 390.808 834.693 391.32 834.693 391.855V406.653C834.693 407.758 835.588 408.653 836.693 408.653H843.568C844.096 408.653 844.601 408.861 844.976 409.232L859.592 423.707C859.971 424.082 860.185 424.594 860.185 425.128V451.581C860.185 452.685 861.08 453.581 862.185 453.581H875.425C875.951 453.581 876.457 453.373 876.831 453.003L897.129 432.922C897.504 432.552 898.009 432.344 898.536 432.344H911.421C911.947 432.344 912.452 432.136 912.827 431.766L939.211 405.675C939.591 405.3 939.805 404.788 939.805 404.253V385.391C939.805 384.287 938.909 383.391 937.805 383.391H926.866C926.339 383.391 925.833 383.183 925.458 382.812L918.785 376.198C918.007 375.426 916.751 375.425 915.971 376.196L907.767 384.308C907.392 384.679 906.887 384.886 906.361 384.886H893.887C892.783 384.886 891.887 383.991 891.887 382.886V367.719C891.887 366.615 890.992 365.719 889.887 365.719H882.655C881.551 365.719 880.655 364.824 880.655 363.719V348.284C880.655 347.179 881.551 346.284 882.655 346.284H888.267C888.793 346.284 889.299 346.491 889.673 346.862L908.668 365.64C909.042 366.01 909.548 366.218 910.074 366.218H930.357C930.884 366.218 931.39 366.426 931.764 366.796L946.389 381.279C946.763 381.65 947.269 381.858 947.796 381.858H974.71C975.237 381.858 975.742 382.066 976.117 382.436L996.435 402.545C997.214 403.317 998.47 403.316 999.249 402.544L1003.21 398.615C1004.48 397.363 1006.62 398.258 1006.62 400.035V435.994C1006.62 436.528 1006.83 437.04 1007.21 437.416L1016.72 446.822C1017.1 447.198 1017.32 447.71 1017.32 448.244V473.83C1017.32 474.364 1017.53 474.876 1017.91 475.252L1030.78 487.993C1031.56 488.764 1032.82 488.765 1033.6 487.994L1055.67 466.167C1056.05 465.791 1056.26 465.279 1056.26 464.744V444.412C1056.26 443.877 1056.48 443.364 1056.86 442.988L1073.23 426.836C1073.61 426.46 1073.82 425.948 1073.82 425.413V411.635C1073.82 411.101 1074.03 410.589 1074.41 410.213L1092.31 392.524C1093.09 391.754 1094.34 391.754 1095.12 392.524L1118.77 415.886C1119.15 416.262 1119.36 416.774 1119.36 417.309V435.561C1119.36 437.338 1121.51 438.232 1122.77 436.982L1125.82 433.965C1126.59 433.194 1127.85 433.193 1128.63 433.963L1138.59 443.793C1138.97 444.169 1139.18 444.682 1139.18 445.217V479.466C1139.18 479.999 1139.39 480.511 1139.77 480.887L1154.3 495.276C1154.68 495.652 1154.9 496.164 1154.9 496.698V507.333C1154.9 507.868 1155.11 508.38 1155.49 508.756L1176.83 529.836C1178.09 531.085 1180.24 530.19 1180.24 528.414V524.797C1180.24 524.263 1180.02 523.751 1179.64 523.375L1170.79 514.621C1170.41 514.245 1170.19 513.733 1170.19 513.199V495.932C1170.19 495.398 1169.98 494.885 1169.6 494.509L1151.62 476.747C1151.24 476.371 1151.03 475.859 1151.03 475.324V456.303C1151.03 454.526 1153.17 453.631 1154.43 454.881L1174.54 474.768C1175.31 475.539 1176.57 475.538 1177.35 474.767L1191.07 461.183C1191.45 460.807 1191.66 460.296 1191.66 459.762V434.367C1191.66 433.833 1191.45 433.321 1191.07 432.945L1174.24 416.285C1173.44 415.502 1173.45 414.225 1174.24 413.442L1185.69 402.11C1186.47 401.339 1187.73 401.339 1188.5 402.111L1195.27 408.807C1196.53 410.057 1198.67 409.163 1198.67 407.386V397.567C1198.67 397.032 1198.89 396.52 1199.27 396.144L1211.66 383.892C1212.04 383.522 1212.54 383.315 1213.07 383.315H1229.17C1229.7 383.315 1230.2 383.107 1230.58 382.737L1265.51 348.213C1265.89 347.837 1266.1 347.325 1266.1 346.79V318.981C1266.1 318.447 1265.89 317.935 1265.51 317.56L1252.74 304.923C1251.95 304.141 1251.95 302.864 1252.74 302.081L1258.54 296.338C1259.33 295.555 1259.33 294.278 1258.53 293.496L1253.66 288.671C1253.28 288.3 1252.78 288.093 1252.25 288.093H1242.66C1242.13 288.093 1241.63 287.886 1241.25 287.517L1234.08 280.438C1232.81 279.182 1233.69 277.014 1235.48 277.014H1248.15C1248.67 277.014 1249.18 276.806 1249.55 276.435L1257.79 268.276C1259.05 267.025 1261.2 267.92 1261.2 269.697V281.319C1261.2 283.094 1263.34 283.989 1264.6 282.743L1268.78 278.625C1269.15 278.256 1269.66 278.049 1270.18 278.049H1275.53C1276.63 278.049 1277.53 278.945 1277.53 280.049V288.163C1277.53 289.267 1278.42 290.163 1279.53 290.163H1281.66C1282.77 290.163 1283.66 291.058 1283.66 292.163V309.491C1283.66 310.026 1283.88 310.538 1284.26 310.914L1288.62 315.224C1289.4 315.994 1290.65 315.994 1291.43 315.224L1302.43 304.358C1302.81 303.983 1303.02 303.47 1303.02 302.936V285.071C1303.02 283.966 1302.12 283.071 1301.02 283.071H1289.76C1288.66 283.071 1287.76 282.175 1287.76 281.071V267.806C1287.76 267.271 1287.98 266.759 1288.36 266.383L1309.6 245.391C1309.98 245.021 1310.48 244.813 1311.01 244.813H1325.12C1325.65 244.813 1326.15 244.606 1326.53 244.236L1363.19 208.025C1363.57 207.649 1363.78 207.137 1363.78 206.602V168.405C1363.78 167.871 1363.57 167.359 1363.19 166.983L1358.36 162.214C1357.58 161.444 1356.33 161.444 1355.55 162.214L1350.56 167.146C1350.19 167.516 1349.68 167.724 1349.16 167.724H1336.14C1334.35 167.724 1333.46 165.558 1334.74 164.301L1369.83 129.622C1370.2 129.252 1370.71 129.045 1371.23 129.045H1399.87C1400.4 129.045 1400.91 128.837 1401.28 128.466L1408.83 120.994C1410.09 119.744 1412.23 120.638 1412.23 122.415V122.904C1412.23 124.009 1413.13 124.904 1414.23 124.904H1430.39C1430.91 124.904 1431.42 124.696 1431.79 124.325L1440.18 116.011L1460.6 95.8119C1460.98 95.4416 1461.48 95.2339 1462.01 95.2339H1472.95C1474.05 95.2339 1474.95 96.1293 1474.95 97.2339V110.231C1474.95 110.765 1474.73 111.277 1474.36 111.653L1453.21 132.571L1437.29 148.314C1436.91 148.69 1436.69 149.202 1436.69 149.737V186.347C1436.69 187.452 1437.59 188.347 1438.69 188.347H1445.15C1445.67 188.347 1446.18 188.139 1446.55 187.769L1467.92 166.624C1468.29 166.248 1468.51 165.736 1468.51 165.202V153.951C1468.51 153.418 1468.72 152.907 1469.1 152.532L1473.21 148.453C1473.59 148.078 1473.8 147.567 1473.8 147.034V131.566C1473.8 131.032 1474.01 130.52 1474.39 130.144L1491.19 113.522C1491.57 113.152 1492.07 112.944 1492.6 112.944H1517.9C1518.43 112.944 1518.94 112.737 1519.31 112.366L1539.15 92.7452C1539.52 92.3748 1540.03 92.1671 1540.56 92.1671H1555.07C1556.86 92.1671 1557.75 90.0033 1556.48 88.7462L1547.29 79.6411C1546.02 78.384 1546.91 76.2202 1548.7 76.2202H1569.63C1570.73 76.2202 1571.63 75.3247 1571.63 74.2202V66.6351C1571.63 64.8587 1573.77 63.9639 1575.03 65.2129L1588.14 78.1724C1588.51 78.5426 1589.02 78.7502 1589.55 78.7502H1601.66C1602.19 78.7502 1602.7 78.5425 1603.07 78.1723L1618.37 63.0375C1619.17 62.2545 1619.17 60.9755 1618.37 60.1928L1610.22 52.139C1610.16 52.0794 1610.07 52.0797 1610.01 52.1396V52.1396ZM919.258 266.926C919.258 268.03 918.362 268.926 917.258 268.926H914.127C913.023 268.926 912.127 269.821 912.127 270.926V298.053C912.127 299.157 911.232 300.053 910.127 300.053H896.158C895.632 300.053 895.127 299.846 894.753 299.476L887.039 291.862C886.658 291.486 886.444 290.973 886.444 290.438V276.123C886.444 275.589 886.23 275.078 885.851 274.702L874.654 263.609C874.275 263.233 874.062 262.722 874.062 262.188V238.91C874.062 238.219 874.419 237.576 875.006 237.212L900.255 221.526C901.588 220.698 903.311 221.657 903.311 223.225V242.369C903.311 242.903 903.524 243.415 903.903 243.79L918.665 258.41C919.044 258.786 919.258 259.297 919.258 259.831V266.926Z" fill="#D8CFC5"/>
</g>
<circle cx="249" cy="271" r="6" fill="#262626"/>
<circle cx="621" cy="227" r="6" fill="#262626"/>
<circle cx="615" cy="178" r="6" fill="#262626"/>
<circle cx="249" cy="271" r="19" stroke="#BCA48F" stroke-opacity="0.8" stroke-width="2"/>
<circle cx="249" cy="271" r="39.5" stroke="#BCA48F" stroke-opacity="0.3"/>
<circle cx="621" cy="227" r="19" stroke="#BCA48F" stroke-opacity="0.8" stroke-width="2"/>
<circle cx="621" cy="227" r="39.5" stroke="#BCA48F" stroke-opacity="0.3"/>
<circle cx="615" cy="178" r="19" stroke="#BCA48F" stroke-opacity="0.8" stroke-width="2"/>
<circle cx="615" cy="178" r="39.5" stroke="#BCA48F" stroke-opacity="0.3"/>
<path d="M291.67 265.364V277H290.057L284.142 268.466H284.034V277H282.278V265.364H283.903L289.824 273.909H289.932V265.364H291.67ZM297.857 277.176C296.997 277.176 296.256 276.992 295.635 276.625C295.018 276.254 294.54 275.733 294.203 275.062C293.87 274.388 293.703 273.598 293.703 272.693C293.703 271.799 293.87 271.011 294.203 270.33C294.54 269.648 295.01 269.116 295.612 268.733C296.218 268.35 296.927 268.159 297.737 268.159C298.23 268.159 298.707 268.241 299.169 268.403C299.631 268.566 300.046 268.822 300.413 269.17C300.781 269.519 301.071 269.972 301.283 270.528C301.495 271.081 301.601 271.754 301.601 272.545V273.148H294.663V271.875H299.936C299.936 271.428 299.845 271.032 299.663 270.688C299.482 270.339 299.226 270.064 298.896 269.864C298.571 269.663 298.188 269.562 297.749 269.562C297.271 269.562 296.855 269.68 296.499 269.915C296.146 270.146 295.874 270.449 295.68 270.824C295.491 271.195 295.396 271.598 295.396 272.034V273.028C295.396 273.612 295.499 274.108 295.703 274.517C295.911 274.926 296.201 275.239 296.572 275.455C296.944 275.667 297.377 275.773 297.874 275.773C298.196 275.773 298.489 275.727 298.754 275.636C299.019 275.542 299.249 275.402 299.442 275.216C299.635 275.03 299.783 274.801 299.885 274.528L301.493 274.818C301.364 275.292 301.133 275.706 300.8 276.062C300.47 276.415 300.055 276.689 299.555 276.886C299.059 277.08 298.493 277.176 297.857 277.176ZM305.362 277L302.794 268.273H304.55L306.26 274.682H306.345L308.061 268.273H309.817L311.521 274.653H311.607L313.305 268.273H315.061L312.499 277H310.766L308.993 270.699H308.862L307.089 277H305.362ZM320.146 265.364H322.141L325.18 270.653H325.305L328.345 265.364H330.339L326.118 272.432V277H324.368V272.432L320.146 265.364ZM334.099 277.176C333.281 277.176 332.567 276.989 331.957 276.614C331.348 276.239 330.874 275.714 330.537 275.04C330.2 274.366 330.031 273.578 330.031 272.676C330.031 271.771 330.2 270.979 330.537 270.301C330.874 269.623 331.348 269.097 331.957 268.722C332.567 268.347 333.281 268.159 334.099 268.159C334.918 268.159 335.632 268.347 336.241 268.722C336.851 269.097 337.325 269.623 337.662 270.301C337.999 270.979 338.168 271.771 338.168 272.676C338.168 273.578 337.999 274.366 337.662 275.04C337.325 275.714 336.851 276.239 336.241 276.614C335.632 276.989 334.918 277.176 334.099 277.176ZM334.105 275.75C334.635 275.75 335.075 275.61 335.423 275.33C335.772 275.049 336.029 274.676 336.196 274.21C336.366 273.744 336.452 273.231 336.452 272.67C336.452 272.114 336.366 271.602 336.196 271.136C336.029 270.667 335.772 270.29 335.423 270.006C335.075 269.722 334.635 269.58 334.105 269.58C333.571 269.58 333.128 269.722 332.776 270.006C332.427 270.29 332.168 270.667 331.997 271.136C331.83 271.602 331.747 272.114 331.747 272.67C331.747 273.231 331.83 273.744 331.997 274.21C332.168 274.676 332.427 275.049 332.776 275.33C333.128 275.61 333.571 275.75 334.105 275.75ZM340.064 277V268.273H341.706V269.659H341.797C341.956 269.189 342.236 268.82 342.638 268.551C343.043 268.278 343.501 268.142 344.013 268.142C344.119 268.142 344.244 268.146 344.388 268.153C344.536 268.161 344.651 268.17 344.734 268.182V269.807C344.666 269.788 344.545 269.767 344.371 269.744C344.196 269.718 344.022 269.705 343.848 269.705C343.446 269.705 343.089 269.79 342.774 269.96C342.464 270.127 342.217 270.36 342.036 270.659C341.854 270.955 341.763 271.292 341.763 271.67V277H340.064ZM347.767 274.04L347.756 271.966H348.051L351.528 268.273H353.562L349.597 272.477H349.33L347.767 274.04ZM346.205 277V265.364H347.903V277H346.205ZM351.716 277L348.591 272.852L349.761 271.665L353.801 277H351.716Z" fill="#262626"/>
<rect x="360" y="263" width="29" height="16" rx="4" fill="#8D76FF"/>
<path d="M369.476 267.727H370.577V272.511C370.577 273.02 370.457 273.471 370.218 273.864C369.979 274.254 369.643 274.562 369.21 274.787C368.776 275.009 368.268 275.121 367.686 275.121C367.106 275.121 366.599 275.009 366.166 274.787C365.733 274.562 365.397 274.254 365.158 273.864C364.919 273.471 364.799 273.02 364.799 272.511V267.727H365.896V272.422C365.896 272.751 365.969 273.043 366.113 273.299C366.26 273.555 366.467 273.756 366.734 273.903C367.002 274.047 367.319 274.119 367.686 274.119C368.055 274.119 368.374 274.047 368.641 273.903C368.911 273.756 369.117 273.555 369.259 273.299C369.404 273.043 369.476 272.751 369.476 272.422V267.727ZM376.239 269.638C376.201 269.302 376.045 269.041 375.77 268.857C375.495 268.67 375.15 268.576 374.733 268.576C374.435 268.576 374.177 268.623 373.959 268.718C373.741 268.81 373.572 268.938 373.451 269.102C373.333 269.263 373.273 269.446 373.273 269.652C373.273 269.825 373.314 269.974 373.394 270.099C373.477 270.225 373.585 270.33 373.717 270.415C373.852 270.498 373.997 270.568 374.151 270.625C374.304 270.679 374.452 270.724 374.594 270.76L375.305 270.945C375.537 271.001 375.775 271.078 376.019 271.175C376.262 271.272 376.488 271.4 376.697 271.559C376.905 271.718 377.073 271.914 377.201 272.148C377.331 272.383 377.396 272.663 377.396 272.99C377.396 273.402 377.29 273.768 377.077 274.087C376.866 274.407 376.559 274.659 376.157 274.844C375.757 275.028 375.273 275.121 374.705 275.121C374.16 275.121 373.689 275.034 373.291 274.862C372.894 274.689 372.582 274.444 372.357 274.126C372.132 273.807 372.008 273.428 371.984 272.99H373.085C373.107 273.253 373.192 273.472 373.341 273.647C373.492 273.82 373.685 273.949 373.92 274.034C374.157 274.117 374.416 274.158 374.697 274.158C375.008 274.158 375.283 274.11 375.525 274.013C375.769 273.913 375.96 273.776 376.1 273.601C376.24 273.423 376.31 273.216 376.31 272.979C376.31 272.764 376.248 272.588 376.125 272.45C376.004 272.313 375.84 272.199 375.631 272.109C375.425 272.019 375.192 271.94 374.932 271.871L374.072 271.637C373.49 271.478 373.028 271.245 372.688 270.938C372.349 270.63 372.18 270.223 372.18 269.716C372.18 269.297 372.293 268.931 372.521 268.619C372.748 268.306 373.056 268.063 373.444 267.891C373.832 267.715 374.27 267.628 374.758 267.628C375.25 267.628 375.685 267.714 376.061 267.887C376.44 268.06 376.738 268.298 376.956 268.601C377.174 268.902 377.287 269.247 377.297 269.638H376.239ZM379.363 275H378.199L380.816 267.727H382.084L384.701 275H383.536L381.48 269.048H381.423L379.363 275ZM379.559 272.152H383.337V273.075H379.559V272.152Z" fill="white"/>
<path d="M648.278 184V172.364H650.034V182.489H655.307V184H648.278ZM660.849 184.176C660.031 184.176 659.317 183.989 658.707 183.614C658.098 183.239 657.624 182.714 657.287 182.04C656.95 181.366 656.781 180.578 656.781 179.676C656.781 178.771 656.95 177.979 657.287 177.301C657.624 176.623 658.098 176.097 658.707 175.722C659.317 175.347 660.031 175.159 660.849 175.159C661.668 175.159 662.382 175.347 662.991 175.722C663.601 176.097 664.075 176.623 664.412 177.301C664.749 177.979 664.918 178.771 664.918 179.676C664.918 180.578 664.749 181.366 664.412 182.04C664.075 182.714 663.601 183.239 662.991 183.614C662.382 183.989 661.668 184.176 660.849 184.176ZM660.855 182.75C661.385 182.75 661.825 182.61 662.173 182.33C662.522 182.049 662.779 181.676 662.946 181.21C663.116 180.744 663.202 180.231 663.202 179.67C663.202 179.114 663.116 178.602 662.946 178.136C662.779 177.667 662.522 177.29 662.173 177.006C661.825 176.722 661.385 176.58 660.855 176.58C660.321 176.58 659.878 176.722 659.526 177.006C659.177 177.29 658.918 177.667 658.747 178.136C658.58 178.602 658.497 179.114 658.497 179.67C658.497 180.231 658.58 180.744 658.747 181.21C658.918 181.676 659.177 182.049 659.526 182.33C659.878 182.61 660.321 182.75 660.855 182.75ZM668.513 178.818V184H666.814V175.273H668.445V176.693H668.553C668.753 176.231 669.068 175.86 669.496 175.58C669.928 175.299 670.471 175.159 671.126 175.159C671.721 175.159 672.242 175.284 672.689 175.534C673.136 175.78 673.482 176.148 673.729 176.636C673.975 177.125 674.098 177.729 674.098 178.449V184H672.399V178.653C672.399 178.021 672.234 177.527 671.905 177.17C671.575 176.811 671.123 176.631 670.547 176.631C670.153 176.631 669.803 176.716 669.496 176.886C669.193 177.057 668.952 177.307 668.774 177.636C668.6 177.962 668.513 178.356 668.513 178.818ZM679.643 184.17C678.939 184.17 678.31 183.991 677.757 183.631C677.208 183.267 676.776 182.75 676.462 182.08C676.151 181.405 675.996 180.597 675.996 179.653C675.996 178.71 676.153 177.903 676.467 177.233C676.786 176.562 677.221 176.049 677.774 175.693C678.327 175.337 678.954 175.159 679.655 175.159C680.196 175.159 680.632 175.25 680.962 175.432C681.295 175.61 681.553 175.818 681.734 176.057C681.92 176.295 682.064 176.506 682.166 176.688H682.268V172.364H683.967V184H682.308V182.642H682.166C682.064 182.828 681.916 183.04 681.723 183.278C681.534 183.517 681.272 183.725 680.939 183.903C680.606 184.081 680.174 184.17 679.643 184.17ZM680.018 182.722C680.507 182.722 680.92 182.593 681.257 182.335C681.598 182.074 681.856 181.712 682.03 181.25C682.208 180.788 682.297 180.25 682.297 179.636C682.297 179.03 682.21 178.5 682.036 178.045C681.861 177.591 681.606 177.237 681.268 176.983C680.931 176.729 680.515 176.602 680.018 176.602C679.507 176.602 679.081 176.735 678.74 177C678.399 177.265 678.142 177.627 677.967 178.085C677.797 178.544 677.712 179.061 677.712 179.636C677.712 180.22 677.799 180.744 677.973 181.21C678.147 181.676 678.405 182.045 678.746 182.318C679.09 182.587 679.515 182.722 680.018 182.722ZM690.068 184.176C689.25 184.176 688.536 183.989 687.926 183.614C687.316 183.239 686.843 182.714 686.506 182.04C686.169 181.366 686 180.578 686 179.676C686 178.771 686.169 177.979 686.506 177.301C686.843 176.623 687.316 176.097 687.926 175.722C688.536 175.347 689.25 175.159 690.068 175.159C690.886 175.159 691.6 175.347 692.21 175.722C692.82 176.097 693.294 176.623 693.631 177.301C693.968 177.979 694.136 178.771 694.136 179.676C694.136 180.578 693.968 181.366 693.631 182.04C693.294 182.714 692.82 183.239 692.21 183.614C691.6 183.989 690.886 184.176 690.068 184.176ZM690.074 182.75C690.604 182.75 691.044 182.61 691.392 182.33C691.741 182.049 691.998 181.676 692.165 181.21C692.335 180.744 692.42 180.231 692.42 179.67C692.42 179.114 692.335 178.602 692.165 178.136C691.998 177.667 691.741 177.29 691.392 177.006C691.044 176.722 690.604 176.58 690.074 176.58C689.54 176.58 689.097 176.722 688.744 177.006C688.396 177.29 688.136 177.667 687.966 178.136C687.799 178.602 687.716 179.114 687.716 179.67C687.716 180.231 687.799 180.744 687.966 181.21C688.136 181.676 688.396 182.049 688.744 182.33C689.097 182.61 689.54 182.75 690.074 182.75ZM697.732 178.818V184H696.033V175.273H697.663V176.693H697.771C697.972 176.231 698.286 175.86 698.714 175.58C699.146 175.299 699.69 175.159 700.345 175.159C700.94 175.159 701.461 175.284 701.908 175.534C702.355 175.78 702.701 176.148 702.947 176.636C703.194 177.125 703.317 177.729 703.317 178.449V184H701.618V178.653C701.618 178.021 701.453 177.527 701.124 177.17C700.794 176.811 700.341 176.631 699.766 176.631C699.372 176.631 699.021 176.716 698.714 176.886C698.411 177.057 698.171 177.307 697.993 177.636C697.819 177.962 697.732 178.356 697.732 178.818Z" fill="#262626"/>
<rect x="711" y="170" width="23" height="16" rx="4" fill="#8D76FF"/>
<path d="M720.476 174.727H721.577V179.511C721.577 180.02 721.457 180.471 721.218 180.864C720.979 181.254 720.643 181.562 720.21 181.787C719.776 182.009 719.268 182.121 718.686 182.121C718.106 182.121 717.599 182.009 717.166 181.787C716.733 181.562 716.397 181.254 716.158 180.864C715.919 180.471 715.799 180.02 715.799 179.511V174.727H716.896V179.422C716.896 179.751 716.969 180.043 717.113 180.299C717.26 180.555 717.467 180.756 717.734 180.903C718.002 181.047 718.319 181.119 718.686 181.119C719.055 181.119 719.374 181.047 719.641 180.903C719.911 180.756 720.117 180.555 720.259 180.299C720.404 180.043 720.476 179.751 720.476 179.422V174.727ZM723.272 182V174.727H724.369V178.2H724.458L727.509 174.727H728.89L725.957 178.001L728.901 182H727.58L725.229 178.751L724.369 179.738V182H723.272Z" fill="white"/>
<path d="M663.67 221.364V233H662.057L656.142 224.466H656.034V233H654.278V221.364H655.903L661.824 229.909H661.932V221.364H663.67ZM668.635 233.193C668.082 233.193 667.582 233.091 667.135 232.886C666.688 232.678 666.334 232.377 666.072 231.983C665.815 231.589 665.686 231.106 665.686 230.534C665.686 230.042 665.781 229.636 665.97 229.318C666.16 229 666.415 228.748 666.737 228.562C667.059 228.377 667.419 228.237 667.817 228.142C668.214 228.047 668.62 227.975 669.033 227.926C669.555 227.866 669.98 227.816 670.305 227.778C670.631 227.737 670.868 227.67 671.016 227.58C671.163 227.489 671.237 227.341 671.237 227.136V227.097C671.237 226.6 671.097 226.216 670.817 225.943C670.54 225.67 670.127 225.534 669.578 225.534C669.006 225.534 668.555 225.661 668.226 225.915C667.9 226.165 667.675 226.443 667.55 226.75L665.953 226.386C666.143 225.856 666.419 225.428 666.783 225.102C667.15 224.773 667.572 224.534 668.05 224.386C668.527 224.235 669.029 224.159 669.555 224.159C669.904 224.159 670.273 224.201 670.663 224.284C671.057 224.364 671.425 224.511 671.766 224.727C672.11 224.943 672.393 225.252 672.612 225.653C672.832 226.051 672.942 226.568 672.942 227.205V233H671.283V231.807H671.214C671.105 232.027 670.94 232.242 670.72 232.455C670.5 232.667 670.218 232.843 669.874 232.983C669.529 233.123 669.116 233.193 668.635 233.193ZM669.004 231.83C669.474 231.83 669.875 231.737 670.209 231.551C670.546 231.366 670.802 231.123 670.976 230.824C671.154 230.521 671.243 230.197 671.243 229.852V228.727C671.182 228.788 671.065 228.845 670.891 228.898C670.72 228.947 670.525 228.991 670.305 229.028C670.086 229.062 669.872 229.095 669.663 229.125C669.455 229.152 669.281 229.174 669.141 229.193C668.811 229.235 668.51 229.305 668.237 229.403C667.968 229.502 667.752 229.644 667.589 229.83C667.43 230.011 667.351 230.254 667.351 230.557C667.351 230.977 667.506 231.295 667.817 231.511C668.127 231.723 668.523 231.83 669.004 231.83ZM676.903 227.818V233H675.205V224.273H676.835V225.693H676.943C677.144 225.231 677.458 224.86 677.886 224.58C678.318 224.299 678.862 224.159 679.517 224.159C680.112 224.159 680.633 224.284 681.08 224.534C681.527 224.78 681.873 225.148 682.119 225.636C682.366 226.125 682.489 226.729 682.489 227.449V233H680.79V227.653C680.79 227.021 680.625 226.527 680.295 226.17C679.966 225.811 679.513 225.631 678.938 225.631C678.544 225.631 678.193 225.716 677.886 225.886C677.583 226.057 677.343 226.307 677.165 226.636C676.991 226.962 676.903 227.356 676.903 227.818ZM688.841 224.273V225.636H684.074V224.273H688.841ZM685.352 222.182H687.051V230.438C687.051 230.767 687.1 231.015 687.199 231.182C687.297 231.345 687.424 231.456 687.58 231.517C687.739 231.574 687.911 231.602 688.097 231.602C688.233 231.602 688.352 231.593 688.455 231.574C688.557 231.555 688.636 231.54 688.693 231.528L689 232.932C688.902 232.97 688.761 233.008 688.58 233.045C688.398 233.087 688.17 233.11 687.898 233.114C687.451 233.121 687.034 233.042 686.648 232.875C686.261 232.708 685.949 232.451 685.71 232.102C685.472 231.754 685.352 231.316 685.352 230.79V222.182ZM694.388 233.176C693.528 233.176 692.787 232.992 692.166 232.625C691.549 232.254 691.071 231.733 690.734 231.062C690.401 230.388 690.234 229.598 690.234 228.693C690.234 227.799 690.401 227.011 690.734 226.33C691.071 225.648 691.541 225.116 692.143 224.733C692.75 224.35 693.458 224.159 694.268 224.159C694.761 224.159 695.238 224.241 695.7 224.403C696.162 224.566 696.577 224.822 696.945 225.17C697.312 225.519 697.602 225.972 697.814 226.528C698.026 227.081 698.132 227.754 698.132 228.545V229.148H691.195V227.875H696.467C696.467 227.428 696.376 227.032 696.195 226.688C696.013 226.339 695.757 226.064 695.428 225.864C695.102 225.663 694.719 225.562 694.28 225.562C693.803 225.562 693.386 225.68 693.03 225.915C692.678 226.146 692.405 226.449 692.212 226.824C692.022 227.195 691.928 227.598 691.928 228.034V229.028C691.928 229.612 692.03 230.108 692.234 230.517C692.443 230.926 692.732 231.239 693.104 231.455C693.475 231.667 693.909 231.773 694.405 231.773C694.727 231.773 695.02 231.727 695.286 231.636C695.551 231.542 695.78 231.402 695.973 231.216C696.166 231.03 696.314 230.801 696.416 230.528L698.024 230.818C697.895 231.292 697.664 231.706 697.331 232.062C697.001 232.415 696.587 232.689 696.087 232.886C695.59 233.08 695.024 233.176 694.388 233.176ZM706.557 226.403L705.017 226.676C704.953 226.479 704.85 226.292 704.71 226.114C704.574 225.936 704.388 225.79 704.153 225.676C703.919 225.562 703.625 225.506 703.273 225.506C702.792 225.506 702.39 225.614 702.068 225.83C701.746 226.042 701.585 226.316 701.585 226.653C701.585 226.945 701.693 227.18 701.909 227.358C702.125 227.536 702.473 227.682 702.955 227.795L704.341 228.114C705.144 228.299 705.742 228.585 706.136 228.972C706.53 229.358 706.727 229.86 706.727 230.477C706.727 231 706.576 231.466 706.273 231.875C705.973 232.28 705.555 232.598 705.017 232.83C704.483 233.061 703.864 233.176 703.159 233.176C702.182 233.176 701.384 232.968 700.767 232.551C700.15 232.131 699.771 231.534 699.631 230.761L701.273 230.511C701.375 230.939 701.585 231.263 701.903 231.483C702.222 231.699 702.636 231.807 703.148 231.807C703.705 231.807 704.15 231.691 704.483 231.46C704.816 231.225 704.983 230.939 704.983 230.602C704.983 230.33 704.881 230.1 704.676 229.915C704.475 229.729 704.167 229.589 703.75 229.494L702.273 229.17C701.458 228.985 700.856 228.689 700.466 228.284C700.08 227.879 699.886 227.366 699.886 226.744C699.886 226.229 700.03 225.778 700.318 225.392C700.606 225.006 701.004 224.705 701.511 224.489C702.019 224.269 702.6 224.159 703.256 224.159C704.199 224.159 704.941 224.364 705.483 224.773C706.025 225.178 706.383 225.722 706.557 226.403Z" fill="#262626"/>
<rect x="714" y="219" width="28" height="16" rx="4" fill="#8D76FF"/>
<path d="M718.799 231V223.727H723.309V224.672H719.896V226.888H722.986V227.829H719.896V231H718.799ZM724.758 231V223.727H727.351C727.914 223.727 728.382 223.824 728.753 224.018C729.127 224.213 729.407 224.481 729.591 224.825C729.776 225.165 729.868 225.56 729.868 226.007C729.868 226.452 729.775 226.844 729.588 227.183C729.403 227.519 729.124 227.78 728.75 227.967C728.378 228.154 727.911 228.248 727.347 228.248H725.383V227.303H727.248C727.603 227.303 727.892 227.252 728.114 227.151C728.339 227.049 728.504 226.901 728.608 226.707C728.712 226.513 728.764 226.279 728.764 226.007C728.764 225.732 728.711 225.495 728.604 225.293C728.5 225.092 728.336 224.938 728.111 224.832C727.888 224.723 727.596 224.668 727.234 224.668H725.856V231H724.758ZM728.349 227.719L730.145 231H728.895L727.134 227.719H728.349ZM731.918 231H730.753L733.37 223.727H734.638L737.255 231H736.091L734.035 225.048H733.978L731.918 231ZM732.113 228.152H735.892V229.075H732.113V228.152Z" fill="white"/>
<path d="M907.173 409.422C908.291 409.164 909.164 408.291 909.422 407.173L911.026 400.222C911.264 399.189 912.736 399.189 912.974 400.222L914.578 407.173C914.836 408.291 915.709 409.164 916.827 409.422L923.778 411.026C924.811 411.264 924.811 412.736 923.778 412.974L916.827 414.578C915.709 414.836 914.836 415.709 914.578 416.827L912.974 423.778C912.736 424.811 911.264 424.811 911.026 423.778L909.422 416.827C909.164 415.709 908.291 414.836 907.173 414.578L900.222 412.974C899.189 412.736 899.189 411.264 900.222 411.026L907.173 409.422Z" fill="#8D7458"/>
<circle cx="905.5" cy="405.5" r="1.5" fill="#8D7458"/>
<circle cx="905.5" cy="418.5" r="1.5" fill="#8D7458"/>
<circle cx="918.5" cy="405.5" r="1.5" fill="#8D7458"/>
<circle cx="918.5" cy="418.5" r="1.5" fill="#8D7458"/>
<path d="M272.475 362.155C272.224 362.013 272.148 361.854 272.248 361.677C272.337 361.52 272.485 361.486 272.69 361.578C272.892 361.655 273.045 361.699 273.149 361.709C273.268 361.715 273.391 361.692 273.518 361.641C273.65 361.581 273.763 361.522 273.857 361.465C273.955 361.398 274.117 361.275 274.341 361.096L282.153 354.814C282.288 354.706 282.377 354.646 282.42 354.634C282.478 354.618 282.549 354.633 282.633 354.681L283.58 355.216C283.664 355.263 283.714 355.316 283.73 355.374L283.701 355.652L282.337 365.613C282.303 365.912 282.283 366.121 282.277 366.241C282.276 366.35 282.282 366.458 282.296 366.564C282.34 366.834 282.474 367.051 282.7 367.215C282.935 367.384 283.005 367.553 282.911 367.72C282.816 367.887 282.644 367.9 282.393 367.758L279.398 366.066C279.147 365.924 279.072 365.765 279.171 365.589C279.276 365.403 279.445 365.376 279.677 365.507C280.021 365.701 280.266 365.668 280.413 365.408C280.471 365.306 280.536 365.049 280.61 364.637L280.737 363.533C280.769 363.282 280.766 363.114 280.727 363.031C280.688 362.948 280.567 362.849 280.362 362.733L276.852 360.75C276.647 360.634 276.516 360.585 276.458 360.601C276.414 360.613 276.39 360.624 276.385 360.633C276.296 360.681 276.197 360.748 276.088 360.833L275.163 361.56C275.023 361.677 274.903 361.781 274.803 361.871C274.703 361.962 274.629 362.049 274.582 362.132C274.44 362.383 274.537 362.603 274.871 362.792C275.103 362.923 275.164 363.086 275.054 363.281C274.96 363.448 274.782 363.458 274.522 363.311L272.475 362.155ZM277.341 359.851C277.258 359.999 277.304 360.123 277.48 360.223L280.575 361.934C280.751 362.034 280.876 362.019 280.949 361.889L281 361.734L281.654 356.608C281.66 356.575 281.658 356.537 281.646 356.493C281.643 356.455 281.639 356.429 281.635 356.414C281.539 356.433 281.478 356.454 281.453 356.476L277.418 359.747L277.341 359.851Z" fill="#BCA48F" fill-opacity="0.8"/>
<path d="M291.906 370.292L295.577 363.13C295.728 362.836 295.656 362.613 295.362 362.463L294.564 362.054C294.137 361.835 293.795 361.696 293.538 361.636C293.281 361.576 292.981 361.566 292.637 361.605C292.092 361.662 291.568 361.819 291.065 362.076C290.845 362.179 290.692 362.208 290.606 362.165C290.435 362.077 290.391 361.953 290.474 361.791C290.513 361.715 290.588 361.64 290.698 361.564L292.665 360.182C292.833 360.064 292.984 360.039 293.117 360.107C293.193 360.146 293.24 360.194 293.259 360.252L293.314 360.424C293.337 360.52 293.467 360.628 293.704 360.75L300.368 364.165C300.596 364.282 300.782 364.317 300.925 364.271C301.069 364.225 301.179 364.221 301.255 364.26C301.359 364.314 301.406 364.374 301.396 364.44L301.4 364.712L301.348 367.095C301.347 367.19 301.329 367.271 301.295 367.338C301.208 367.508 301.079 367.55 300.908 367.462C300.803 367.409 300.738 367.268 300.712 367.038C300.685 366.809 300.624 366.532 300.527 366.206C300.439 365.886 300.363 365.661 300.297 365.532C300.176 365.301 299.987 365.073 299.732 364.846C299.481 364.61 299.199 364.411 298.886 364.251L297.911 363.769C297.74 363.681 297.606 363.649 297.511 363.672C297.415 363.695 297.324 363.792 297.236 363.962L293.397 371.452C293.281 371.68 293.205 371.839 293.171 371.929C293.136 372.02 293.107 372.124 293.082 372.243C293.065 372.51 293.194 372.714 293.469 372.855C293.706 372.977 293.774 373.137 293.672 373.337C293.584 373.508 293.412 373.527 293.156 373.396L290.294 371.929C290.028 371.793 289.942 371.635 290.034 371.454C290.131 371.264 290.294 371.228 290.522 371.345C290.797 371.486 291.014 371.507 291.172 371.408C291.331 371.31 291.522 371.042 291.746 370.606L291.906 370.292Z" fill="#BCA48F" fill-opacity="0.8"/>
<path d="M303.925 376.283L307.084 369.494C307.291 369.049 307.384 368.734 307.365 368.548C307.355 368.367 307.21 368.212 306.929 368.081C306.701 367.94 306.627 367.782 306.708 367.608C306.789 367.434 306.965 367.41 307.236 367.536L310.065 368.852C310.336 368.978 310.426 369.137 310.336 369.331C310.264 369.485 310.1 369.521 309.845 369.438C309.594 369.345 309.401 369.355 309.266 369.468C309.135 369.572 308.969 369.842 308.766 370.277L305.493 377.313C305.363 377.593 305.28 377.796 305.245 377.921C305.211 378.046 305.212 378.17 305.249 378.293C305.3 378.411 305.553 378.576 306.007 378.787L306.965 379.233C307.941 379.687 308.699 379.892 309.237 379.849C309.466 379.837 309.762 379.781 310.127 379.68C310.491 379.579 310.772 379.469 310.969 379.349C311.172 379.267 311.307 379.241 311.375 379.273C311.549 379.354 311.598 379.477 311.522 379.641C311.486 379.718 311.418 379.787 311.32 379.847L309.233 381.223C309.031 381.353 308.872 381.391 308.756 381.337C308.679 381.301 308.627 381.247 308.601 381.177L308.488 380.965C308.458 380.904 308.415 380.843 308.361 380.782C308.312 380.736 308.196 380.67 308.012 380.585L302.383 377.966C302.113 377.84 302.02 377.685 302.105 377.501C302.195 377.308 302.361 377.268 302.603 377.38C302.874 377.506 303.084 377.522 303.234 377.427C303.384 377.332 303.549 377.091 303.729 376.704L303.783 376.588L303.925 376.283Z" fill="#BCA48F" fill-opacity="0.8"/>
<path d="M314.524 383.542C314.259 383.431 314.165 383.281 314.244 383.095C314.314 382.927 314.457 382.877 314.671 382.945C314.88 382.998 315.038 383.024 315.143 383.022C315.262 383.014 315.381 382.977 315.501 382.912C315.625 382.837 315.731 382.766 315.817 382.698C315.908 382.62 316.054 382.479 316.255 382.275L323.29 375.133C323.411 375.01 323.493 374.94 323.534 374.923C323.59 374.901 323.663 374.908 323.751 374.945L324.754 375.367C324.842 375.405 324.898 375.451 324.921 375.507L324.925 375.786L324.72 385.839C324.72 386.14 324.725 386.35 324.732 386.469C324.744 386.578 324.763 386.684 324.789 386.788C324.863 387.051 325.022 387.251 325.266 387.388C325.519 387.529 325.608 387.688 325.533 387.865C325.459 388.042 325.289 388.075 325.023 387.963L321.853 386.628C321.587 386.516 321.494 386.367 321.573 386.18C321.656 385.984 321.82 385.937 322.066 386.04C322.429 386.194 322.669 386.133 322.785 385.857C322.831 385.749 322.866 385.486 322.891 385.069L322.891 383.957C322.893 383.704 322.87 383.538 322.822 383.46C322.774 383.382 322.642 383.297 322.426 383.206L318.71 381.642C318.493 381.551 318.357 381.516 318.301 381.539C318.259 381.556 318.236 381.57 318.232 381.579C318.15 381.637 318.059 381.715 317.961 381.812L317.126 382.641C317 382.774 316.893 382.891 316.804 382.992C316.715 383.093 316.652 383.188 316.615 383.277C316.503 383.542 316.624 383.75 316.978 383.899C317.224 384.002 317.303 384.157 317.216 384.363C317.142 384.54 316.967 384.571 316.692 384.455L314.524 383.542ZM319.092 380.692C319.026 380.849 319.086 380.967 319.273 381.045L322.544 382.388C322.731 382.467 322.853 382.437 322.911 382.3L322.944 382.14L323.001 376.973C323.004 376.94 322.997 376.902 322.98 376.86C322.972 376.822 322.966 376.796 322.96 376.782C322.867 376.812 322.809 376.84 322.786 376.865L319.157 380.58L319.092 380.692Z" fill="#BCA48F" fill-opacity="0.8"/>
<path d="M330.176 390.005C329.906 389.904 329.807 389.759 329.878 389.569C329.941 389.399 330.072 389.34 330.269 389.391C330.48 389.436 330.628 389.451 330.713 389.437C330.801 389.413 330.893 389.351 330.988 389.25C331.034 389.187 331.073 389.128 331.106 389.072C331.138 389.016 331.218 388.818 331.345 388.478L334.08 381.165C334.252 380.705 334.334 380.394 334.326 380.232C334.322 380.059 334.224 379.926 334.032 379.831C333.849 379.74 333.739 379.67 333.7 379.622C333.661 379.573 333.663 379.494 333.704 379.384C333.778 379.184 333.956 379.137 334.235 379.241L336.019 379.908C336.139 379.953 336.209 380.008 336.231 380.073C336.266 380.131 336.307 380.232 336.356 380.376L339.691 389.686C339.693 389.709 339.726 389.744 339.788 389.79C339.857 389.759 339.897 389.728 339.908 389.699L341.998 384.109C342.166 383.659 342.244 383.346 342.23 383.17C342.219 382.984 342.1 382.848 341.87 382.762C341.727 382.686 341.639 382.619 341.604 382.56C341.569 382.502 341.572 382.417 341.613 382.307C341.68 382.128 341.853 382.09 342.133 382.195L343.862 382.824C344.142 382.929 344.246 383.076 344.175 383.266C344.131 383.386 344.083 383.453 344.031 383.468C343.99 383.487 343.871 383.471 343.674 383.42C343.486 383.373 343.307 383.442 343.135 383.628L342.983 383.896L342.793 384.406L339.48 393.263C339.432 393.392 339.368 393.442 339.288 393.413L338.778 393.222C338.678 393.185 338.647 393.116 338.684 393.016L338.759 392.771C338.796 392.671 338.814 392.592 338.813 392.535C338.816 392.467 338.787 392.36 338.729 392.213L334.97 381.754L334.906 381.696C334.831 381.713 334.79 381.732 334.783 381.752L332.154 388.78C331.99 389.22 331.915 389.528 331.928 389.704C331.952 389.884 332.079 390.033 332.307 390.153C332.549 390.266 332.639 390.408 332.575 390.578C332.504 390.768 332.329 390.81 332.049 390.706L330.176 390.005Z" fill="#BCA48F" fill-opacity="0.8"/>
<path d="M350.77 395.046L353.271 387.397C353.373 387.082 353.268 386.874 352.953 386.771L352.102 386.493C351.645 386.343 351.286 386.259 351.022 386.241C350.759 386.222 350.461 386.259 350.128 386.352C349.599 386.494 349.106 386.731 348.649 387.064C348.448 387.2 348.301 387.253 348.21 387.223C348.027 387.164 347.964 387.048 348.021 386.875C348.047 386.794 348.109 386.708 348.206 386.616L349.932 384.942C350.08 384.799 350.225 384.751 350.366 384.797C350.448 384.824 350.502 384.864 350.529 384.918L350.611 385.079C350.649 385.17 350.794 385.257 351.048 385.34L358.165 387.667C358.408 387.746 358.597 387.752 358.732 387.684C358.866 387.616 358.974 387.595 359.055 387.621C359.167 387.658 359.223 387.71 359.223 387.777L359.27 388.045L359.592 390.406C359.606 390.5 359.602 390.583 359.579 390.654C359.519 390.837 359.398 390.898 359.215 390.838C359.104 390.802 359.017 390.673 358.955 390.45C358.893 390.228 358.789 389.964 358.642 389.658C358.505 389.355 358.394 389.145 358.309 389.027C358.153 388.819 357.931 388.623 357.643 388.439C357.359 388.245 357.049 388.093 356.715 387.984L355.675 387.661C355.493 387.601 355.356 387.59 355.265 387.628C355.175 387.666 355.099 387.776 355.04 387.958L352.424 395.957C352.345 396.201 352.295 396.37 352.275 396.464C352.256 396.559 352.243 396.667 352.237 396.788C352.262 397.055 352.422 397.236 352.716 397.332C352.969 397.415 353.061 397.563 352.991 397.776C352.932 397.958 352.765 398.005 352.491 397.915L349.435 396.916C349.151 396.823 349.04 396.68 349.103 396.488C349.169 396.285 349.324 396.223 349.568 396.303C349.862 396.399 350.079 396.386 350.22 396.264C350.361 396.141 350.508 395.847 350.66 395.381L350.77 395.046Z" fill="#BCA48F" fill-opacity="0.8"/>
<path d="M363.518 399.413L365.701 391.899C365.832 391.449 365.884 391.136 365.857 390.962C365.833 390.777 365.706 390.64 365.476 390.551C365.22 390.477 365.12 390.342 365.177 390.148C365.236 389.943 365.404 389.88 365.681 389.961L368.477 390.773C368.754 390.854 368.863 390.996 368.803 391.201C368.77 391.314 368.729 391.379 368.679 391.398C368.629 391.417 368.504 391.409 368.303 391.372C368.103 391.336 367.929 391.419 367.781 391.621L367.635 391.895L367.483 392.417L365.305 399.915C365.177 400.356 365.13 400.67 365.165 400.857C365.199 401.045 365.336 401.185 365.576 401.277C365.832 401.351 365.93 401.491 365.871 401.696C365.817 401.88 365.647 401.931 365.36 401.847L362.472 401.008C362.195 400.928 362.085 400.79 362.142 400.596C362.192 400.421 362.35 400.356 362.615 400.4C362.83 400.462 362.996 400.444 363.114 400.345C363.235 400.236 363.341 400.022 363.433 399.705L363.518 399.413Z" fill="#BCA48F" fill-opacity="0.8"/>
<path d="M384.34 397.433C384.358 397.537 384.356 397.63 384.335 397.713C384.29 397.888 384.18 397.954 384.004 397.909C383.891 397.88 383.798 397.746 383.727 397.508C383.584 397.075 383.42 396.703 383.235 396.392C382.665 395.432 381.848 394.817 380.783 394.546C379.636 394.253 378.57 394.483 377.586 395.234C376.602 395.985 375.925 397.089 375.553 398.546C375.177 400.024 375.273 401.353 375.842 402.533C376.411 403.713 377.326 404.463 378.587 404.784C379.249 404.953 379.894 404.969 380.523 404.832C381.153 404.695 381.709 404.413 382.192 403.986C382.332 403.867 382.423 403.791 382.465 403.758C382.561 403.683 382.645 403.655 382.717 403.674C382.914 403.724 382.985 403.852 382.933 404.059C382.914 404.131 382.86 404.216 382.769 404.314C382.688 404.415 382.565 404.532 382.398 404.666C381.817 405.134 381.129 405.437 380.334 405.576C379.549 405.717 378.723 405.678 377.855 405.456C376.19 405.032 374.951 404.15 374.137 402.808C373.323 401.467 373.127 399.97 373.548 398.316C373.967 396.672 374.855 395.413 376.212 394.537C377.582 393.653 379.026 393.405 380.546 393.792C381.197 393.958 381.906 394.287 382.672 394.779L383.02 394.967C383.186 395.009 383.323 394.945 383.432 394.775C383.542 394.605 383.669 394.538 383.814 394.575C383.927 394.604 383.993 394.648 384.011 394.708L384.076 394.972L384.34 397.433Z" fill="#BCA48F" fill-opacity="0.8"/>
<path d="M402.489 404.993C402.782 403.333 403.608 402.022 404.969 401.059C406.33 400.097 407.783 399.752 409.327 400.024C410.903 400.301 412.155 401.155 413.084 402.586C414.012 404.017 414.326 405.583 414.027 407.285C413.742 408.903 412.968 410.131 411.704 410.97C410.441 411.809 408.953 412.077 407.241 411.776C405.539 411.476 404.241 410.728 403.347 409.53C402.453 408.333 402.147 406.936 402.428 405.339L402.489 404.993ZM409.179 400.68C408.129 400.495 407.159 400.833 406.271 401.695C405.395 402.548 404.825 403.725 404.56 405.227L404.513 405.495C404.254 406.966 404.392 408.209 404.928 409.224C405.464 410.239 406.3 410.846 407.434 411.046C408.516 411.237 409.484 410.936 410.339 410.144C411.193 409.353 411.748 408.232 412.003 406.782C412.273 405.249 412.138 403.898 411.596 402.73C411.056 401.552 410.251 400.869 409.179 400.68Z" fill="#BCA48F" fill-opacity="0.8"/>
<path d="M430.689 405.781C430.719 405.882 430.729 405.975 430.717 406.059C430.694 406.239 430.592 406.317 430.412 406.294C430.296 406.278 430.188 406.156 430.089 405.928C429.896 405.515 429.69 405.165 429.469 404.878C428.79 403.992 427.906 403.477 426.817 403.334C425.643 403.179 424.612 403.532 423.723 404.394C422.835 405.256 422.292 406.432 422.095 407.923C421.896 409.435 422.148 410.744 422.852 411.848C423.556 412.952 424.553 413.59 425.844 413.76C426.52 413.849 427.163 413.789 427.772 413.579C428.381 413.369 428.9 413.023 429.329 412.542C429.454 412.407 429.536 412.321 429.573 412.283C429.66 412.198 429.74 412.16 429.814 412.17C430.015 412.196 430.101 412.315 430.073 412.527C430.064 412.601 430.019 412.692 429.94 412.8C429.872 412.909 429.764 413.04 429.614 413.192C429.092 413.726 428.444 414.109 427.671 414.34C426.909 414.573 426.084 414.631 425.195 414.513C423.493 414.289 422.158 413.558 421.192 412.323C420.225 411.087 419.854 409.623 420.077 407.931C420.299 406.25 421.032 404.894 422.276 403.864C423.532 402.825 424.938 402.408 426.492 402.613C427.158 402.701 427.901 402.944 428.72 403.343L429.088 403.488C429.257 403.51 429.386 403.431 429.475 403.249C429.563 403.067 429.681 402.985 429.829 403.005C429.946 403.02 430.016 403.057 430.041 403.114L430.137 403.368L430.689 405.781Z" fill="#BCA48F" fill-opacity="0.8"/>
<path d="M436.989 413.46L437.664 406.034L437.681 405.843C437.699 405.641 437.706 405.513 437.7 405.459C437.694 405.405 437.67 405.317 437.628 405.195C437.597 405.064 437.536 404.962 437.446 404.89C437.367 404.818 437.237 404.774 437.057 404.758C436.794 404.702 436.671 404.578 436.689 404.387C436.706 404.196 436.858 404.113 437.145 404.139L443.997 404.762C444.241 404.784 444.414 404.768 444.515 404.713L444.688 404.584L444.901 404.539C444.975 404.546 445.032 404.572 445.07 404.619C445.12 404.655 445.177 404.735 445.241 404.859L446.202 406.842C446.258 406.933 446.282 407.015 446.276 407.09C446.261 407.249 446.164 407.321 445.983 407.304C445.856 407.293 445.726 407.184 445.595 406.98C445.242 406.498 444.796 406.104 444.256 405.798C443.787 405.541 443.111 405.372 442.23 405.292L440.716 405.155C440.227 405.11 439.913 405.146 439.774 405.262C439.647 405.368 439.561 405.66 439.518 406.138L439.328 408.226C439.295 408.587 439.465 408.784 439.837 408.818L441.223 408.944C441.489 408.968 441.665 408.968 441.753 408.944C441.852 408.921 441.944 408.844 442.031 408.712L442.163 408.499C442.235 408.42 442.329 408.386 442.446 408.397C442.52 408.403 442.566 408.429 442.583 408.473C442.612 408.508 442.632 408.531 442.641 408.543C442.707 408.645 442.748 408.719 442.766 408.763L443.691 410.598C443.756 410.711 443.785 410.81 443.777 410.895C443.762 411.065 443.669 411.142 443.499 411.127C443.435 411.121 443.373 411.1 443.312 411.062C443.262 411.025 443.175 410.921 443.051 410.749C442.596 410.097 441.944 409.733 441.094 409.655L439.74 409.532C439.389 409.5 439.198 409.655 439.168 409.994L438.807 413.962C438.764 414.44 438.8 414.749 438.916 414.888C439.032 415.027 439.323 415.118 439.791 415.16L441.99 415.36C442.51 415.407 442.975 415.423 443.383 415.406C443.803 415.38 444.167 415.327 444.474 415.248C444.782 415.158 445.102 415 445.433 414.773C445.776 414.536 446.05 414.288 446.256 414.028C446.39 413.848 446.515 413.763 446.632 413.773C446.845 413.793 446.943 413.893 446.926 414.073C446.921 414.126 446.87 414.218 446.773 414.349L445.295 416.464C445.16 416.655 445.018 416.744 444.869 416.73C444.795 416.723 444.718 416.69 444.638 416.629L444.458 416.484C444.389 416.413 444.308 416.368 444.213 416.349C444.129 416.331 444.002 416.314 443.832 416.298L436.104 415.596C435.807 415.569 435.667 415.455 435.685 415.253C435.705 415.04 435.847 414.946 436.113 414.97C436.445 414.968 436.669 414.866 436.783 414.662C436.834 414.581 436.868 414.493 436.888 414.398C436.908 414.293 436.931 414.102 436.956 413.826L436.989 413.46Z" fill="#BCA48F" fill-opacity="0.8"/>
<path d="M451.412 416.898C451.125 416.883 450.986 416.774 450.996 416.572C451.006 416.391 451.123 416.295 451.347 416.285C451.562 416.264 451.719 416.235 451.817 416.197C451.926 416.15 452.026 416.075 452.117 415.972C452.208 415.86 452.282 415.757 452.341 415.663C452.399 415.56 452.489 415.377 452.609 415.116L456.793 406.007C456.865 405.85 456.918 405.757 456.951 405.726C456.996 405.686 457.066 405.668 457.162 405.673L458.249 405.729C458.345 405.734 458.413 405.759 458.453 405.803L458.552 406.065L461.781 415.587C461.884 415.87 461.959 416.066 462.007 416.175C462.055 416.274 462.109 416.367 462.169 416.456C462.328 416.677 462.546 416.811 462.821 416.857C463.107 416.904 463.245 417.023 463.235 417.215C463.226 417.407 463.077 417.495 462.789 417.481L459.354 417.305C459.066 417.29 458.928 417.181 458.938 416.979C458.949 416.766 459.087 416.666 459.354 416.68C459.748 416.7 459.953 416.561 459.968 416.263C459.974 416.145 459.918 415.886 459.8 415.485L459.421 414.44C459.337 414.201 459.259 414.053 459.187 413.996C459.115 413.939 458.962 413.904 458.728 413.892L454.701 413.686C454.467 413.674 454.327 413.688 454.282 413.728C454.249 413.759 454.232 413.779 454.231 413.79C454.173 413.872 454.115 413.976 454.055 414.101L453.552 415.165C453.479 415.332 453.418 415.478 453.369 415.604C453.32 415.73 453.293 415.84 453.288 415.936C453.273 416.224 453.458 416.378 453.841 416.397C454.107 416.411 454.235 416.53 454.223 416.753C454.213 416.945 454.059 417.033 453.761 417.018L451.412 416.898ZM454.737 412.662C454.729 412.833 454.825 412.923 455.028 412.933L458.561 413.082C458.763 413.093 458.868 413.023 458.876 412.874L458.852 412.713L457.148 407.835C457.139 407.803 457.119 407.77 457.089 407.736C457.069 407.703 457.054 407.681 457.044 407.67C456.966 407.73 456.921 407.776 456.909 407.807L454.76 412.535L454.737 412.662Z" fill="#BCA48F" fill-opacity="0.8"/>
<path d="M468.329 417.647C468.041 417.644 467.898 417.541 467.9 417.338C467.902 417.157 468.005 417.057 468.207 417.038C468.421 417.008 468.565 416.972 468.641 416.93C468.716 416.878 468.781 416.788 468.835 416.66C468.858 416.586 468.874 416.517 468.886 416.453C468.897 416.389 468.905 416.176 468.908 415.813L468.991 408.005C468.996 407.515 468.967 407.195 468.905 407.045C468.843 406.884 468.705 406.792 468.492 406.768C468.29 406.745 468.162 406.717 468.109 406.684C468.056 406.652 468.03 406.577 468.031 406.459C468.033 406.246 468.184 406.141 468.483 406.144L470.386 406.164C470.514 406.165 470.599 406.193 470.642 406.247C470.694 406.29 470.768 406.371 470.863 406.489L477.167 414.108C477.177 414.13 477.22 414.151 477.294 414.174C477.348 414.121 477.375 414.078 477.376 414.046L477.439 408.079C477.444 407.599 477.41 407.278 477.337 407.118C477.264 406.946 477.105 406.859 476.859 406.857C476.7 406.834 476.593 406.8 476.54 406.757C476.488 406.714 476.462 406.634 476.463 406.516C476.465 406.324 476.615 406.23 476.914 406.233L478.754 406.237C479.053 406.24 479.201 406.343 479.199 406.545C479.198 406.673 479.175 406.753 479.132 406.785C479.1 406.816 478.982 406.842 478.78 406.861C478.587 406.88 478.442 407.007 478.343 407.24L478.292 407.544L478.287 408.088L478.187 417.543C478.185 417.682 478.142 417.751 478.056 417.75L477.512 417.744C477.406 417.743 477.353 417.689 477.354 417.582L477.341 417.326C477.342 417.22 477.332 417.139 477.311 417.086C477.291 417.022 477.228 416.93 477.122 416.812L470.028 408.256L469.949 408.224C469.884 408.266 469.852 408.297 469.852 408.319L469.772 415.822C469.767 416.291 469.801 416.607 469.874 416.767C469.958 416.928 470.128 417.026 470.383 417.061C470.65 417.085 470.782 417.188 470.78 417.369C470.778 417.572 470.627 417.671 470.329 417.668L468.329 417.647Z" fill="#BCA48F" fill-opacity="0.8"/>
</g>
</g>
<defs>
<clipPath id="clip0_345_10443">
<rect width="960" height="460" fill="white"/>
</clipPath>
<clipPath id="clip1_345_10443">
<rect width="960" height="460" fill="white"/>
</clipPath>
<clipPath id="clip2_345_10443">
<rect width="1860.62" height="1018" fill="white" transform="translate(-241 -112)"/>
</clipPath>
</defs>
</svg>
