<svg width="32" height="32" viewBox="0 0 32 32" fill="none" xmlns="http://www.w3.org/2000/svg">
<path d="M2 28C2 26.8954 2.89543 26 4 26H28C29.1046 26 30 26.8954 30 28V28C30 29.1046 29.1046 30 28 30H4C2.89543 30 2 29.1046 2 28V28Z" fill="#8D7458"/>
<path fill-rule="evenodd" clip-rule="evenodd" d="M27.5687 22.8868C27.0689 23.6186 26.2125 24 25.3264 24H6.67362C5.78746 24 4.93108 23.6186 4.43125 22.8868C2.89713 20.6408 2 17.9252 2 15C2 7.26801 8.26801 1 16 1C23.732 1 30 7.26801 30 15C30 17.9252 29.1029 20.6408 27.5687 22.8868ZM22 7V6C22 5.44772 21.5523 5 21 5C20.4477 5 20 5.44772 20 6V7C20 8.10457 19.1046 9 18 9H17C16.4477 9 16 9.44772 16 10C16 10.5523 16.4477 11 17 11H18C19.1046 11 20 11.8954 20 13V14C20 14.5523 20.4477 15 21 15C21.5523 15 22 14.5523 22 14V13C22 11.8954 22.8954 11 24 11H25C25.5523 11 26 10.5523 26 10C26 9.44772 25.5523 9 25 9H24C22.8954 9 22 8.10457 22 7ZM11 7.5C11 8.32843 10.3284 9 9.5 9C8.67157 9 8 8.32843 8 7.5C8 6.67157 8.67157 6 9.5 6C10.3284 6 11 6.67157 11 7.5Z" fill="#8D7458"/>
</svg>
