<svg width="32" height="32" viewBox="0 0 32 32" fill="none" xmlns="http://www.w3.org/2000/svg">
<path d="M3.12086 18.1212C1.9493 16.9497 1.9493 15.0502 3.12086 13.8786L5.2924 11.7071C5.68292 11.3165 6.31609 11.3165 6.70661 11.7071L7.49951 12.5C8.88021 13.8807 11.1188 13.8807 12.4995 12.5C13.8802 11.1193 13.8802 8.8807 12.4995 7.5L11.7066 6.70711C11.3161 6.31658 11.3161 5.68342 11.7066 5.29289L13.8782 3.12136C15.0497 1.94979 16.9492 1.94978 18.1208 3.12136L20.2923 5.29289C20.6829 5.68342 21.316 5.68342 21.7065 5.29289L22.4994 4.5C23.8801 3.1193 26.1187 3.1193 27.4994 4.50001C28.8801 5.88071 28.8801 8.11927 27.4994 9.49997L26.7065 10.2928C26.316 10.6834 26.316 11.3165 26.7065 11.7071L28.878 13.8786C30.0496 15.0502 30.0496 16.9497 28.878 18.1212L26.7065 20.2928C26.316 20.6833 25.6828 20.6833 25.2923 20.2928L24.4994 19.4999C23.1187 18.1192 20.8801 18.1192 19.4994 19.4999C18.1187 20.8806 18.1187 23.1192 19.4994 24.4999L20.2923 25.2927C20.6829 25.6833 20.6829 26.3164 20.2923 26.707L18.1208 28.8785C16.9492 30.0501 15.0497 30.0501 13.8782 28.8785L11.7066 26.707C11.3161 26.3164 10.6829 26.3164 10.2924 26.707L9.49948 27.4998C8.11878 28.8805 5.88021 28.8805 4.49951 27.4998C3.11881 26.1191 3.11881 23.8806 4.49951 22.4999L5.2924 21.707C5.68292 21.3165 5.68292 20.6833 5.2924 20.2928L3.12086 18.1212Z" fill="#8D7458"/>
</svg>
