<svg width="32" height="32" viewBox="0 0 32 32" fill="none" xmlns="http://www.w3.org/2000/svg">
<path fill-rule="evenodd" clip-rule="evenodd" d="M17 3.00006C17 1.8955 16.0994 0.985059 15.0059 1.14099C8.21846 2.1089 3 7.94506 3 15.0001V26.0001C3 27.6569 4.34315 29.0001 6 29.0001H17C24.055 29.0001 29.8912 23.7816 30.8591 16.9941C31.015 15.9006 30.1046 15.0001 29 15.0001H19C17.8954 15.0001 17 14.1046 17 13.0001V3.00006Z" fill="#8D7458"/>
<path d="M20 13.0001H28.5518C29.769 13.0001 30.7133 11.9141 30.3445 10.7541C28.9722 6.43711 25.563 3.02791 21.246 1.65554C20.086 1.28676 19 2.23105 19 3.44829V12.0001C19 12.5524 19.4477 13.0001 20 13.0001Z" fill="#8D7458"/>
</svg>
