<svg width="44" height="44" viewBox="0 0 44 44" fill="none" xmlns="http://www.w3.org/2000/svg">
<path d="M38 21.7704C38 26.0095 37.2896 29.4481 36.4129 29.4481C35.5363 29.4481 34.8262 26.0105 34.8262 21.7704C34.8262 17.5304 35.5366 14.0928 36.4129 14.0928C37.2893 14.0928 38 17.5301 38 21.7704Z" fill="#262626"/>
<path d="M33.9504 21.77C33.9504 26.5025 31.9301 30.3404 29.4379 30.3404C26.9456 30.3404 24.9253 26.5025 24.9253 21.77C24.9253 17.0376 26.9453 13.1997 29.4375 13.1997C31.9298 13.1997 33.9501 17.0364 33.9501 21.77" fill="#262626"/>
<path d="M24.0499 21.7701C24.0499 26.7977 20.0093 30.8734 15.0251 30.8734C10.041 30.8734 6 26.7968 6 21.7701C6 16.7434 10.0407 12.6665 15.0251 12.6665C20.0096 12.6665 24.0499 16.7425 24.0499 21.7701Z" fill="#262626"/>
</svg>
