<svg width="44" height="44" viewBox="0 0 44 44" fill="none" xmlns="http://www.w3.org/2000/svg">
<g clip-path="url(#clip0_345_9528)">
<path d="M35.6313 6H8.3625C7.05625 6 6 7.03125 6 8.30625V35.6875C6 36.9625 7.05625 38 8.3625 38H35.6313C36.9375 38 38 36.9625 38 35.6938V8.30625C38 7.03125 36.9375 6 35.6313 6ZM15.4937 33.2687H10.7438V17.9937H15.4937V33.2687ZM13.1188 15.9125C11.5938 15.9125 10.3625 14.6812 10.3625 13.1625C10.3625 11.6438 11.5938 10.4125 13.1188 10.4125C14.6375 10.4125 15.8687 11.6438 15.8687 13.1625C15.8687 14.675 14.6375 15.9125 13.1188 15.9125ZM33.2687 33.2687H28.525V25.8438C28.525 24.075 28.4937 21.7937 26.0562 21.7937C23.5875 21.7937 23.2125 23.725 23.2125 25.7188V33.2687H18.475V17.9937H23.025V20.0813H23.0875C23.7187 18.8813 25.2688 17.6125 27.575 17.6125C32.3813 17.6125 33.2687 20.775 33.2687 24.8875V33.2687V33.2687Z" fill="#262626"/>
</g>
<defs>
<clipPath id="clip0_345_9528">
<rect x="6" y="6" width="32" height="32" rx="6" fill="white"/>
</clipPath>
</defs>
</svg>
