<svg width="44" height="44" viewBox="0 0 44 44" fill="none" xmlns="http://www.w3.org/2000/svg">
<path d="M38 12C36.8 12.6 35.6 12.8 34.2 13C35.6 12.2 36.6 11 37 9.4C35.8 10.2 34.4 10.6 32.8 11C31.6 9.8 29.8 9 28 9C23.8 9 20.6 13 21.6 17C16.2 16.8 11.4 14.2 8 10.2C6.2 13.2 7.2 17 10 19C9 19 8 18.6 7 18.2C7 21.2 9.2 24 12.2 24.8C11.2 25 10.2 25.2 9.2 25C10 27.6 12.4 29.6 15.4 29.6C13 31.4 9.4 32.4 6 32C9 33.8 12.4 35 16 35C28.2 35 35 24.8 34.6 15.4C36 14.6 37.2 13.4 38 12Z" fill="#262626"/>
</svg>
